<?xml version="1.0" encoding="UTF-8" standalone="no"?>
<!-- Created with Inkscape (http://www.inkscape.org/) -->

<svg
   xmlns:dc="http://purl.org/dc/elements/1.1/"
   xmlns:cc="http://creativecommons.org/ns#"
   xmlns:rdf="http://www.w3.org/1999/02/22-rdf-syntax-ns#"
   xmlns:svg="http://www.w3.org/2000/svg"
   xmlns="http://www.w3.org/2000/svg"
   xmlns:sodipodi="http://sodipodi.sourceforge.net/DTD/sodipodi-0.dtd"
   xmlns:inkscape="http://www.inkscape.org/namespaces/inkscape"
   id="svg2"
   version="1.1"
   inkscape:version="0.48.5 r10040"
   width="450.97784"
   height="657.58221"
   sodipodi:docname="waldo.png">
  <metadata
     id="metadata8">
    <rdf:RDF>
      <cc:Work
         rdf:about="">
        <dc:format>image/svg+xml</dc:format>
        <dc:type
           rdf:resource="http://purl.org/dc/dcmitype/StillImage" />
        <dc:title></dc:title>
      </cc:Work>
    </rdf:RDF>
  </metadata>
  <defs
     id="defs6" />
  <sodipodi:namedview
     pagecolor="#ffffff"
     bordercolor="#666666"
     borderopacity="1"
     objecttolerance="10"
     gridtolerance="10"
     guidetolerance="10"
     inkscape:pageopacity="0"
     inkscape:pageshadow="2"
     inkscape:window-width="964"
     inkscape:window-height="994"
     id="namedview4"
     showgrid="false"
     fit-margin-top="0"
     fit-margin-left="0"
     fit-margin-right="0"
     fit-margin-bottom="0"
     inkscape:zoom="0.905042"
     inkscape:cx="225.05"
     inkscape:cy="331.81268"
     inkscape:window-x="457"
     inkscape:window-y="29"
     inkscape:window-maximized="0"
     inkscape:current-layer="svg2" />
  <g
     id="g2987"
     transform="translate(-17.916102,-21.264384)">
    <path
       style="fill:#a29b9c"
       d="m 156.11218,676.94099 c -3.03435,-1.07732 -7.18407,-3.62699 -9.5,-5.837 -2.2617,-2.15826 -6.21764,-5.87708 -8.79099,-8.26405 -2.90092,-2.69082 -6.43328,-7.66691 -9.29598,-13.0954 l -4.61717,-8.75546 -1.07876,-15.1065 c -0.7992,-11.19161 -0.78292,-16.09397 0.0628,-18.91681 0.62788,-2.09567 1.41963,-9.35778 1.75945,-16.13804 0.53779,-10.73012 0.32905,-13.49408 -1.6107,-21.32773 -2.63539,-10.64297 -4.21676,-13.5 -7.47224,-13.5 -2.71674,0 -11.59196,-6.87278 -16.932935,-13.11252 -1.962633,-2.29289 -4.297274,-6.36326 -5.188092,-9.04526 -1.543075,-4.64577 -1.52102,-5.16848 0.466369,-11.05347 C 95.277819,518.75015 96,514.07175 96,509.27507 c 0,-5.36136 1.096314,-11.53485 4.07204,-22.93022 2.23963,-8.57649 4.48963,-16.69195 5,-18.03434 0.51038,-1.34239 0.92796,-3.74453 0.92796,-5.3381 0,-4.03784 3.81124,-14.13584 6.08476,-16.12176 2.29104,-2.00122 3.92047,-6.03925 3.90033,-9.66575 -0.0245,-4.40952 12.12306,-46.56068 13.88641,-48.1849 1.28492,-1.18353 1.55844,-3.02962 1.29644,-8.75 -0.19467,-4.25039 -0.77237,-7.25 -1.39629,-7.25 -0.58533,0 -3.22913,2.025 -5.8751,4.5 -7.19318,6.72837 -9.32513,6.18973 -14.25226,-3.60083 -3.0436,-6.04784 -3.39908,-6.38492 -6.47475,-6.13961 -1.78989,0.14275 -5.489812,-0.70212 -8.222047,-1.87749 -3.856494,-1.65902 -6.049676,-1.99352 -9.804731,-1.4954 -3.96545,0.52604 -5.298422,0.27873 -7.397625,-1.37251 C 76.336809,361.90637 73.768354,361 72.037458,361 67.928117,361 55.900363,355.84878 50.642294,351.83692 43.548408,346.42435 37.258458,339.45324 36.547349,336.21558 36.172898,334.51072 34.547955,331.29559 32.936364,329.07085 29.551523,324.39821 26.392892,315.69492 25.470713,308.5 25.118243,305.75 23.29314,299.08678 21.414929,293.69284 16.675151,280.08092 16.729863,272.86219 21.708192,255 c 2.04015,-7.32003 4.67858,-12.21306 12.818328,-23.77189 0.879927,-1.24953 3.102456,-3.04953 4.938953,-4 1.836498,-0.95046 5.035532,-3.07811 7.108964,-4.72811 5.158311,-4.10489 11.605098,-4.13937 19.819566,-0.106 9.870746,4.84662 12.670715,8.45656 15.990593,20.61635 1.575143,5.76931 3.452322,12.51465 4.171509,14.98965 0.719187,2.475 1.59001,6.75 1.935161,9.5 l 0.627547,5 10.691454,-0.0802 c 9.820783,-0.0737 11.039843,-0.30011 14.969473,-2.78078 6.73798,-4.2535 9.58004,-4.43311 13.1802,-0.83295 1.71449,1.71449 3.04006,4.09697 3.04006,5.46398 0,1.33315 0.91051,3.47374 2.02335,4.75686 2.28905,2.63929 2.13412,4.31347 -0.44543,4.81357 C 130.20626,284.3003 126,280.18669 126,277.40747 c 0,-6.22451 -3.12596,-6.97708 -10,-2.40747 -4.13666,2.7499 -5.20649,2.99178 -13.25,2.99572 -8.704856,0.004 -8.75,0.0174 -8.75,2.54712 0,1.60572 1.593143,4.27758 4.32294,7.25 9.49552,10.33948 10.86837,14.50347 10.72439,32.52819 -0.10834,13.56252 -0.16963,13.92726 -3.27658,19.5 -3.22501,5.7845 -11.268876,16.40799 -12.88133,17.0123 -3.969505,1.48768 5.650495,5.65576 11.05789,4.79109 3.84108,-0.61422 4.16152,-0.45687 6.97266,3.4238 1.62061,2.23718 3.24402,5.42195 3.60759,7.07726 1.02885,4.68431 3.02823,4.56371 8.45223,-0.50981 5.38128,-5.03355 9.49485,-5.99817 12.55008,-2.94294 1.38162,1.38162 1.56454,2.90442 1.05105,8.75 -0.34193,3.8925 -0.27502,7.57698 0.14869,8.18774 0.42372,0.61075 2.34539,1.91495 4.27039,2.89821 1.925,0.98326 4.89248,2.84605 6.59439,4.13953 4.61284,3.50584 5.56717,3.06116 3.85361,-1.79559 -0.8048,-2.28106 -2.1467,-10.04356 -2.98198,-17.25 -2.56017,-22.08801 -7.25732,-57.42299 -9.41637,-70.83608 -3.39871,-21.1145 -3.3003,-21.47336 7.20835,-26.28438 3.13707,-1.4362 5.92998,-2.9773 6.20648,-3.42468 0.27649,-0.44738 -1.1774,-1.95742 -3.23088,-3.35565 -5.85125,-3.98416 -10.15831,-8.54162 -10.86322,-11.49479 -0.35538,-1.48887 -0.98188,-3.15704 -1.39221,-3.70704 -0.41034,-0.55 -3.41875,-6.175 -6.68537,-12.5 -5.56105,-10.7676 -6.68904,-14.19403 -9.70882,-29.49201 l -1.1828,-5.99202 -11.94033,-6.0972 c -14.889501,-7.60318 -18.005967,-11.05814 -21.332181,-23.64923 -1.921076,-7.27205 -2.110291,-9.41844 -1.270081,-14.40731 0.543013,-3.22423 1.281118,-9.61165 1.640235,-14.19428 0.618118,-7.8877 0.925071,-8.74098 5.755765,-16 2.806554,-4.21737 6.344089,-9.01795 7.861192,-10.66795 2.56467,-2.78934 2.68212,-3.28319 1.67263,-7.03298 -1.77182,-6.58141 1.28336,-18.27289 6.28519,-24.052056 2.15952,-2.495132 3.9264,-4.880693 3.9264,-5.301247 0,-0.992449 13.71018,-9.676848 18.31336,-11.600182 4.29087,-1.792838 4.91544,-2.71229 5.78008,-8.509097 C 137.67186,54.422263 139.19137,49.08942 142.50571,42.5 147.58563,32.40033 152.93742,26.502908 158.21984,25.183757 162.705,24.063702 172.40594,24.89507 179,26.964611 c 4.35075,1.365479 9.93088,0.703712 26.5,-3.142729 9.95914,-2.311967 14.28652,-2.874474 18.5,-2.40478 8.26765,0.921627 15.03712,3.661057 19.14531,7.747614 6.66914,6.63401 16.22627,23.440722 19.2744,33.895008 2.09232,7.176153 4.94831,11.703095 8.32799,13.200475 5.78632,2.563645 23.91095,14.077571 27.31443,17.35187 1.95917,1.884809 5.52881,6.883561 7.93252,11.108331 4.08129,7.17327 4.37239,8.18079 4.40057,15.2305 0.0166,4.15201 -0.34579,9.21428 -0.80531,11.24949 -0.80917,3.58381 -0.65047,3.88353 5.0373,9.51341 7.09815,7.0259 11.01143,13.33731 13.66999,22.04719 1.70067,5.57167 1.81405,7.04245 0.76625,9.94009 -0.67637,1.87047 -1.59345,5.96541 -2.03796,9.09988 -1.51688,10.6963 -2.97794,14.2995 -7.85709,19.37684 -3.98686,4.1488 -6.11034,5.36388 -14.54536,8.32304 -5.43233,1.90575 -10.4916,3.97511 -11.24282,4.59857 -0.75123,0.62346 -1.8493,2.99365 -2.44016,5.26708 -0.59086,2.27343 -3.07714,8.29193 -5.52506,13.37445 -2.44793,5.08251 -4.71976,11.20336 -5.04851,13.60187 -0.5774,4.2126 -0.49685,4.38112 2.36809,4.95411 7.37917,1.47583 14.70852,9.92919 20.20988,23.30923 1.82318,4.43422 3.3199,6.76873 4.19501,6.54317 0.74829,-0.19288 4.38318,-0.77672 8.07754,-1.29743 8.92575,-1.25806 14.14568,0.16156 18.88173,5.13511 4.90295,5.14881 18.57131,24.10979 24.13645,33.48247 1.50435,2.5336 4.14149,5.37694 5.86031,6.31854 11.36828,6.22771 15.77241,11.88231 18.76796,24.09677 1.1751,4.79149 2.13654,9.30567 2.13654,10.0315 0,1.3667 2.43745,4.37088 11.80924,14.55503 l 5.495,5.97131 13.59788,0.65498 c 25.2875,1.21804 30.96178,3.15783 41.82044,14.29655 7.66001,7.85757 8.10979,8.57358 9.65585,15.37107 2.02513,8.90383 2.02289,10.55166 -0.0198,14.53444 -2.78521,5.43052 -5.18695,7.90598 -12.4423,12.82419 -8.35221,5.66175 -12.21526,6.42154 -31.9163,6.27733 -15.81686,-0.11577 -22.7039,-1.37891 -32.11863,-5.89079 -5.91392,-2.83417 -7.41246,-3.17645 -10.63276,-2.42862 -10.10361,2.3463 -18.14142,-0.0668 -21.51073,-6.45798 -2.02983,-3.85034 -2.1983,-3.95801 -2.54061,-1.62379 -0.20164,1.375 -0.72382,2.8728 -1.16039,3.32844 -1.32074,1.37845 -10.72733,-4.05604 -13.64752,-7.88461 -1.50406,-1.97192 -4.64136,-4.89716 -6.97177,-6.50053 -2.33041,-1.60336 -5.1847,-4.44845 -6.34287,-6.3224 -2.27731,-3.68477 -8.83506,-9.1939 -9.79784,-8.23112 -0.32547,0.32547 0.60409,4.57645 2.06568,9.44663 1.46159,4.87017 2.65744,10.06725 2.65744,11.54906 0,1.48181 0.83358,4.36378 1.85241,6.40437 2.14022,4.28664 4.0319,11.35373 5.14206,19.21016 1.26598,8.9591 4.97762,28.27038 6.04079,31.42955 0.54224,1.61126 1.43285,6.87516 1.97914,11.69757 2.02614,17.88589 -2.08927,30.83685 -13.38977,42.13688 -7.34241,7.34209 -20.68302,16.46003 -31.44997,21.49519 -4.22106,1.97398 -7.83907,3.7126 -8.04001,3.86361 -0.79091,0.59438 13.09556,17.14611 17.41276,20.75484 2.52193,2.10807 5.19292,5.24799 5.93553,6.97761 0.74262,1.72961 2.05785,4.77743 2.92275,6.77293 2.35812,5.44071 2.03128,21.80798 -0.56978,28.53316 -1.78898,4.6255 -2.53038,5.39113 -7.14136,7.37472 -19.40314,8.347 -57.15958,-3.49858 -78.19815,-24.53363 -9.43239,-9.43082 -16.74119,-17.44568 -18.18753,-19.94452 -0.74022,-1.27888 -0.99964,-4.32923 -0.68527,-8.05791 l 0.50586,-6 -3.06473,3.46223 c -1.6856,1.90422 -3.06473,4.38221 -3.06473,5.50665 0,1.12443 1.38861,6.09143 3.0858,11.03777 1.69719,4.94634 3.4929,11.46835 3.99047,14.49335 0.49757,3.025 1.33214,7.75 1.85459,10.5 1.84504,9.71157 1.27572,15.85267 -2.52191,27.20337 -4.99536,14.93056 -6.69844,17.97741 -13.73067,24.56446 -6.58837,6.17128 -12.96053,9.20954 -22.67828,10.81304 -7.29201,1.20324 -8.56207,1.106 -14.88782,-1.13988 z M 277.52536,417.39145 c 8.23605,-4.7347 15.98611,-9.5814 17.22236,-10.77044 1.82775,-1.75797 2.70007,-4.86725 4.66881,-16.64145 1.3316,-7.96376 2.12013,-14.7784 1.75228,-15.14364 -0.36784,-0.36524 -4.98798,3.24354 -10.26697,8.01952 -11.57916,10.47582 -15.91885,12.2231 -32.11531,12.93052 l -10.71347,0.46793 0.52392,4.12306 C 249.55224,407.89448 243.18826,415 235.5,415 c -4.37383,0 -9.55368,-3.12492 -11.73124,-7.07727 -2.30681,-4.18694 -1.8587,-9.58331 1.14621,-13.80331 2.46649,-3.46387 3.56203,-2.84689 -10.91497,-6.14697 -5.225,-1.19106 -13.70261,-3.24711 -18.83913,-4.569 C 190.02435,382.08155 185.41185,381 184.91087,381 184.39891,381 184,388.41381 184,397.92857 c 0,13.6444 0.28832,17.2169 1.48619,18.41477 0.81741,0.8174 5.65491,2.42995 10.75,3.58342 5.0951,1.15348 13.08881,2.95389 17.76381,4.00093 6.7108,1.50298 12.71523,1.92144 28.52536,1.988 L 262.55072,426 277.52536,417.39145 z M 356.86718,414.25 c 8.70317,-12.8663 15.76571,-20.48668 26.27017,-28.34511 5.14946,-3.85233 9.52734,-7.47595 9.72862,-8.05248 0.20128,-0.57652 -1.60962,-3.14167 -4.02423,-5.70032 -7.95816,-8.4329 -9.1597,-10.09261 -9.32919,-12.88669 -0.0923,-1.52097 -0.97912,-6.07 -1.97079,-10.10895 -2.24243,-9.13306 -6.23608,-14.61978 -13.16762,-18.09044 -5.60611,-2.80701 -8.9581,-6.3003 -12.58916,-13.11985 -1.30204,-2.44539 -6.92015,-10.54552 -12.48467,-18.0003 -11.04956,-14.80304 -13.16198,-16.31061 -21.32116,-15.21624 -4.96168,0.6655 -5.75344,1.77844 -3.26854,4.59441 4.56091,5.16855 7.91417,13.63722 8.95113,22.60605 0.28171,2.43655 1.39362,7.83655 2.47091,12 1.07729,4.16346 2.14784,10.03489 2.37898,13.04764 0.23115,3.01274 0.97532,7.64342 1.65373,10.2904 1.15176,4.49394 1.0141,5.4889 -2.07843,15.02229 -1.82153,5.61527 -3.71126,10.63709 -4.1994,11.15959 -0.48814,0.5225 -0.88753,1.63863 -0.88753,2.48028 0,0.84165 -1.54166,4.02796 -3.4259,7.08068 -1.88425,3.05272 -3.73303,6.77409 -4.10841,8.26972 -0.58812,2.34326 -0.37758,2.71932 1.52245,2.71932 1.21273,0 4.24987,1.8 6.7492,4 2.49933,2.2 4.86002,4 5.24598,4 0.38596,0 1.5601,1.60452 2.60921,3.5656 1.04911,1.96108 3.27403,4.41349 4.94426,5.44979 1.67023,1.0363 5.18848,4.15678 7.81833,6.9344 2.62985,2.77761 5.18918,5.05021 5.68742,5.05021 0.49823,0 3.56932,-3.9375 6.82464,-8.75 z M 242.72167,376.28294 c 0.74613,-1.94439 9.90114,-1.70826 10.66219,0.275 0.44021,1.14717 1.72084,1.47675 4.85699,1.25 4.02585,-0.29107 4.28654,-0.49885 4.75915,-3.79335 0.45331,-3.15996 0.86588,-3.54467 4.41831,-4.11994 4.70355,-0.76169 6.58169,-3.02481 6.58169,-7.93079 0,-5.02927 -2.41159,-6.94609 -9.09938,-7.23254 L 259.5,354.5 259,362 c -0.66122,9.91824 -2.49142,10.02573 -5.72133,0.33601 -3.48019,-10.44057 -6.78105,-10.96483 -9.7215,-1.54402 -2.32306,7.44279 -3.33041,8.70873 -5.45055,6.84975 -0.88364,-0.77479 -3.54756,-2.3848 -5.91982,-3.57779 -5.67886,-2.85586 -5.42753,-5.4365 0.57183,-5.87145 2.71777,-0.19704 4.24137,-0.78724 4.24137,-1.64301 0,-3.7912 -10.58978,-3.1109 -13.23469,0.85021 -1.33315,1.99659 -0.79525,6.26428 0.98469,7.81252 0.9625,0.83721 3.0945,2.14788 4.73777,2.9126 3.20613,1.49202 4.50852,4.6414 2.44644,5.91584 -0.69441,0.42917 -2.76369,0.53672 -4.59839,0.23898 C 224.75859,373.86142 224,374.09023 224,375.28582 c 0,2.18481 1.44908,2.51926 10.36468,2.39217 5.39082,-0.0769 8.01954,-0.51566 8.35699,-1.39505 z m 3.37928,-6.6613 c -0.81521,-0.98227 -0.84863,-2.15509 -0.11629,-4.08129 1.23475,-3.24764 3.1601,-2.88216 4.47909,0.85024 0.73868,2.09029 0.62191,2.94338 -0.5,3.65298 -1.97666,1.25022 -2.52472,1.19035 -3.8628,-0.42193 z m 17.3155,-4.97878 c -1.213,-3.16103 -0.0118,-6.14286 2.47456,-6.14286 3.1098,0 5.00842,2.8465 3.50175,5.25 -1.42245,2.26914 -5.2299,2.83798 -5.97631,0.89286 z m 33.55391,-18.75895 c -1.73149,-6.78156 -4.80847,-35.16996 -4.94203,-45.59537 -0.0224,-1.74793 -0.91914,-2.45003 -4.27833,-3.34971 -2.3375,-0.62604 -7.48088,-2.83717 -11.42973,-4.91361 -3.94885,-2.07644 -10.3281,-4.54689 -14.17611,-5.48989 -3.84801,-0.94301 -7.76019,-2.55856 -8.69375,-3.59012 -1.61291,-1.78226 -1.56409,-1.93629 0.98141,-3.0961 2.11992,-0.9659 4.28408,-0.95159 10.37348,0.0686 8.85312,1.48318 10.16873,2.05991 15.9095,6.97426 2.31813,1.98443 5.80135,4.88613 7.74047,6.44822 l 3.52567,2.84016 0.97404,-2.56191 c 0.56166,-1.47728 2.43007,-3.17029 4.41317,-3.99888 1.89152,-0.79033 3.71058,-2.29224 4.04236,-3.33758 0.38485,-1.21256 -1.39626,-5.93144 -4.9199,-13.03478 -6.09257,-12.28209 -8.78606,-15.00013 -16.24563,-16.39372 -5.12965,-0.95833 -8.39919,0.51481 -13.74498,6.19296 -3.32208,3.52863 -19.4153,14.48437 -22.82771,15.54036 C 236.25968,280.88067 224,290.09557 224,293.37333 c 0,2.59994 -6.95743,6.24794 -13.32401,6.9862 -3.20321,0.37144 -7.57278,1.56749 -9.71016,2.6579 -4.77771,2.43741 -4.96583,2.44067 -4.96583,0.0862 0,-1.04302 1.59066,-3.29302 3.5348,-5 2.74709,-2.41198 4.47412,-3.107 7.75,-3.1189 2.31836,-0.008 4.8902,-0.45153 5.7152,-0.98469 2.5173,-1.6268 -7.60328,-1.1926 -11.65424,0.5 -6.02738,2.5184 -9.45253,1.92138 -16.6442,-2.90116 C 178.36171,287.34751 163,281.377 163,283.16427 c 0,0.48163 1.96919,4.8042 4.37598,9.60571 3.05077,6.08626 6.07913,14.98373 10,29.38056 3.09321,11.3578 5.63091,21.4828 5.63933,22.5 0.0377,4.54683 0.70714,4.52836 24.03817,-0.66326 C 231.41246,338.56692 234,337.76394 234,335.62503 234,333.60797 240.68133,328 243.08446,328 c 2.97148,0 7.3953,2.55707 9.20678,5.32174 1.14431,1.74643 2.24849,2.29774 3.95041,1.9724 2.65935,-0.50837 12.03986,1.70672 21.75835,5.13796 3.575,1.2622 8.8451,2.84704 11.71132,3.52187 3.90633,0.91971 5.36301,1.76774 5.81705,3.38649 1.11462,3.97385 2.73654,7.72796 3.15709,7.30741 0.22894,-0.22894 -0.54285,-4.17272 -1.7151,-8.76396 z M 178,316.65893 C 178,315.12344 186.87922,310 189.54032,310 c 1.65361,0 1.64553,0.13716 -0.12321,2.09159 C 187.62854,314.06793 180.57092,318 178.81217,318 178.36548,318 178,317.39652 178,316.65893 z m 59.7885,-14.55659 c -2.68376,-2.39795 -3.24305,-3.62279 -3.24305,-7.10234 0,-3.47955 0.55929,-4.70439 3.24305,-7.10234 C 239.57218,286.30395 242.14235,285 243.5,285 c 1.35765,0 3.92782,1.30395 5.7115,2.89766 2.68376,2.39795 3.24305,3.62279 3.24305,7.10234 0,3.47955 -0.55929,4.70439 -3.24305,7.10234 C 247.42782,303.69605 244.85765,305 243.5,305 c -1.35765,0 -3.92782,-1.30395 -5.7115,-2.89766 z"
       id="path3001"
       inkscape:connector-curvature="0" />
    <path
       style="fill:#7e8080"
       d="m 155.59792,675.48837 c -2.14615,-0.81894 -5.74615,-3.25671 -8,-5.41728 -2.25386,-2.16057 -6.12292,-5.72538 -8.59792,-7.92181 -3.04338,-2.70084 -6.0629,-7.03968 -9.32835,-13.40422 l -4.82836,-9.41071 -0.16794,-19.41717 c -0.10961,-12.67321 0.27129,-21.32744 1.09669,-24.91718 1.56906,-6.82394 0.34857,-20.52157 -2.75794,-30.95264 -1.7508,-5.87889 -2.60313,-7.32723 -4.82048,-8.19137 -6.45495,-2.51563 -9.26712,-4.35852 -14.60763,-9.57278 C 94.187182,537.10658 92.160954,531.05446 95.360663,521.71505 96.262298,519.08333 97,513.86709 97,510.12341 c 0,-4.73768 1.253822,-11.6423 4.12487,-22.71505 2.26867,-8.7496 4.55971,-18.15836 5.09118,-20.90836 1.74231,-9.01518 4.24346,-15.95872 6.62194,-18.38345 2.44467,-2.4922 5.13265,-9.84866 5.15119,-14.09778 0.0192,-4.41243 11.24908,-42.45724 12.99319,-44.01877 1.38573,-1.24067 1.60022,-2.92632 1.24062,-9.75 -0.52298,-9.92412 -1.33489,-10.28978 -8.32644,-3.75 -7.10131,6.64244 -9.64792,5.91265 -13.88809,-3.97993 -2.49705,-5.82578 -3.5675,-6.71392 -7.17897,-5.9563 -1.6389,0.34381 -4.636594,-0.28557 -7.7601,-1.62926 -4.003651,-1.72233 -6.137717,-2.05045 -10.001912,-1.53785 -4.352885,0.57743 -5.222487,0.36418 -7.635919,-1.87251 C 75.531605,359.76333 73.580095,359 70.978408,359 68.927157,359 64.654834,357.8528 61.484356,356.45066 51.627481,352.09148 38,340.23358 38,336.01583 c 0,-0.98528 -1.485852,-3.9794 -3.301894,-6.65362 C 30.62297,323.36136 28.29503,317.18921 27.395298,310 c -0.378581,-3.025 -2.197397,-9.74455 -4.041813,-14.93234 -2.874492,-8.08508 -3.351005,-10.72752 -3.336121,-18.5 0.02155,-11.25305 1.883329,-20.30246 5.893189,-28.64455 C 30.442045,238.49582 37.252066,229 39.481445,229 c 0.73113,0 3.204095,-1.56632 5.495476,-3.48072 7.924311,-6.62057 14.19717,-6.46625 25.241684,0.621 7.513918,4.82167 7.895197,5.57893 13.272076,26.35972 1.423085,5.5 2.832851,12.7 3.132813,16 0.796115,8.75837 1.0507,9.22683 3.554048,6.53981 1.968916,-2.11339 2.730619,-2.24001 10.720978,-1.78226 8.1582,0.46738 8.85052,0.34246 13.43393,-2.42388 7.08773,-4.27783 9.98464,-4.60749 13.10126,-1.49087 1.41146,1.41146 2.56629,3.65106 2.56629,4.97689 0,1.32582 0.90792,3.56483 2.0176,4.97556 2.49632,3.17355 0.933,4.55763 -2.56158,2.26789 C 127.91386,280.55268 127,279.00778 127,277.41121 c 0,-6.71822 -4.04982,-8.12794 -10.51787,-3.66121 -3.46896,2.39561 -5.20638,2.81443 -13.48213,3.25 -9.366988,0.493 -9.504267,0.53681 -9.804768,3.12922 -0.228796,1.97382 0.956723,4.0708 4.755838,8.41226 2.78333,3.18067 6.24635,8.20661 7.69558,11.16874 2.51002,5.1303 2.62723,6.07647 2.47163,19.95186 l -0.16336,14.56616 -3.89994,6.63588 c -2.14497,3.64973 -6.239198,9.244 -9.098294,12.43171 -2.859096,3.18771 -5.031481,5.89676 -4.827521,6.02012 2.809885,1.69943 8.44115,3.08738 12.700505,3.13032 4.59053,0.0463 5.59935,0.42385 7.27422,2.72248 1.0695,1.46781 2.53236,4.3666 3.2508,6.44177 2.17432,6.28038 3.78806,6.46502 9.53348,1.09085 3.61482,-3.38123 5.84619,-4.70137 7.94654,-4.70137 4.48083,0 5.50461,2.00715 4.72709,9.26755 -0.81607,7.62031 -0.23841,9.3454 3.80938,11.37606 1.72085,0.86331 5.49144,3.17154 8.37909,5.12942 2.88764,1.95787 5.5556,3.25443 5.92879,2.88124 0.3732,-0.37319 -0.0619,-3.03557 -0.96679,-5.9164 -0.90492,-2.88083 -2.34733,-11.31287 -3.20534,-18.73787 -2.39207,-20.70038 -8.30667,-64.48986 -9.9951,-74 -2.33867,-13.17262 -2.16041,-14.51762 2.3579,-17.79068 2.12836,-1.54177 5.70488,-3.40887 7.94783,-4.14911 5.65324,-1.86574 5.85866,-3.48029 0.89303,-7.01899 -7.42416,-5.29073 -9.62458,-7.49605 -10.77652,-10.80049 -0.61982,-1.77804 -3.95481,-8.54872 -7.41108,-15.04595 C 126.41053,231.70434 122,218.52224 122,211.74387 c 0,-4.8729 -1.60444,-6.37599 -12.6825,-11.88135 -16.165625,-8.03367 -18.974805,-11.06433 -21.809951,-23.52951 -1.465734,-6.44434 -1.485945,-8.63129 -0.205871,-22.27655 1.169758,-12.46932 1.771997,-15.51991 3.423918,-17.34357 1.102472,-1.21709 3.574435,-4.68789 5.493252,-7.71289 1.918817,-3.025 4.441582,-6.34551 5.606152,-7.37892 1.85868,-1.64934 2.04293,-2.59125 1.50802,-7.709 -1.77017,-16.936091 5.84273,-28.320449 25.41591,-38.007048 7.19164,-3.55908 7.44313,-3.857469 8.34451,-9.900594 2.17052,-14.551729 4.94495,-21.964471 11.96825,-31.97688 2.64619,-3.772405 5.24022,-6.285755 7.18849,-6.964927 4.52285,-1.576674 14.73253,-1.28786 20.18825,0.571089 5.99771,2.043627 13.40258,1.46074 27.68546,-2.17931 17.94202,-4.572595 31.70723,-2.734826 38.97889,5.204007 6.41332,7.001736 14.95804,22.669011 18.83627,34.537488 C 264.19155,72.089179 267.25957,77 269.31361,77 c 2.4208,0 24.35745,14.086517 28.35033,18.205039 5.05062,5.209531 10.91482,15.820531 11.79774,21.347431 0.37844,2.36899 0.0166,7.07767 -0.87102,11.33472 l -1.51839,7.28224 6.21387,6.16529 c 7.41794,7.35995 12.22761,15.13339 13.85054,22.38543 0.98848,4.41697 0.91515,6.53649 -0.43411,12.5473 -0.89292,3.9779 -2.14323,9.90796 -2.77847,13.17791 -0.95814,4.93213 -1.9448,6.77219 -5.78954,10.79704 -3.94317,4.12791 -5.97719,5.30109 -13.63456,7.86415 -11.97948,4.00974 -13.15239,4.88989 -15.00389,11.25883 -0.85599,2.9445 -3.33161,8.97547 -5.50138,13.40216 -3.99528,8.15103 -6.51059,16.58876 -5.45453,18.29751 0.31781,0.51422 1.58818,0.93495 2.82304,0.93495 3.07825,0 10.85401,5.09198 13.54348,8.869 3.16307,4.44213 9.09328,17.60389 9.09328,20.18204 0,1.87851 0.38261,2.0876 2.75,1.50277 1.5125,-0.37363 5.83277,-1.14494 9.6006,-1.71401 5.77962,-0.87292 7.55016,-0.76751 11.32537,0.67425 3.92321,1.49829 5.75187,3.42058 14.83594,15.59553 5.69865,7.63763 11.57372,16.11443 13.05571,18.83733 3.23393,5.94179 5.96352,8.63234 12.18515,12.0109 6.93207,3.76435 11.65276,10.6511 14.16374,20.66267 1.14592,4.56893 2.08349,9.16149 2.08349,10.2057 0,1.04421 3.32265,5.50691 7.38367,9.91712 4.06102,4.4102 7.84032,8.83453 8.39844,9.83184 0.8621,1.54049 2.94815,1.91992 13.86633,2.52214 25.98796,1.43343 32.52582,3.481 42.02321,13.16114 8.27588,8.43514 8.9977,9.662 10.8261,18.40083 2.07946,9.93873 -1.09402,16.04435 -12.14208,23.36077 -5.84532,3.87099 -7.70518,4.53942 -15.74206,5.65771 -6.72904,0.93631 -12.38422,1.01789 -21.61361,0.31178 -14.18976,-1.0856 -18.08185,-1.99793 -26.38,-6.18361 -5.59648,-2.82293 -6.17507,-2.91538 -12,-1.91734 -10.11859,1.7337 -16.21912,-0.45555 -19.10542,-6.85623 -1.89541,-4.20326 -3.77832,-4.83457 -4.32313,-1.44946 -0.71357,4.43367 -0.98541,4.56289 -5.13998,2.44339 -3.44035,-1.75514 -8.89234,-6.49808 -18.22706,-15.85659 -1.27843,-1.28168 -5.46655,-5.41815 -9.30694,-9.19215 -5.62098,-5.52381 -6.65242,-6.98851 -5.28958,-7.51147 2.02484,-0.77701 12.17386,7.53674 14.39193,11.78939 0.79045,1.5155 3.12163,3.8188 5.18042,5.11846 2.05879,1.29965 5.45109,4.4472 7.53846,6.99455 2.08736,2.54735 4.55257,4.62449 5.47825,4.61586 1.00404,-0.009 3.98845,-3.5396 7.39739,-8.7503 7.77403,-11.88293 17.08448,-21.82537 27.80985,-29.69758 4.9367,-3.62343 8.97581,-7.05458 8.97581,-7.62476 0,-0.57019 -3.18278,-4.64863 -7.07284,-9.06319 -3.89005,-4.41457 -6.84827,-8.61167 -6.57381,-9.3269 0.67681,-1.76375 -3.11539,-16.41215 -5.05378,-19.52158 -2.82178,-4.52651 -6.73124,-8.09736 -10.86917,-9.92776 -4.24138,-1.87617 -9.80466,-8.05113 -12.67826,-14.07224 -0.91871,-1.925 -6.30128,-9.56669 -11.96126,-16.98153 -8.93644,-11.70714 -10.80073,-13.62279 -14.16468,-14.55484 -3.80547,-1.05438 -12.92482,-0.49834 -14.29476,0.8716 -0.38363,0.38363 0.28046,1.92764 1.47576,3.43114 6.67586,8.39723 10.11123,19.7618 14.73161,48.73363 0.78941,4.95 1.7095,10.41001 2.04463,12.13337 0.93112,4.78818 -6.05448,24.78416 -12.33344,35.30393 -1.7875,2.99477 -3.25,6.07726 -3.25,6.84996 0,1.56703 1.96913,8.79349 5.58993,20.51436 1.32554,4.29089 2.41284,9.01589 2.41623,10.5 0.003,1.48411 0.6804,3.9912 1.50448,5.57132 1.77419,3.40191 4.34544,12.93257 5.56492,20.62706 0.85865,5.41779 5.21996,27.69301 6.95062,35.5 0.48769,2.2 0.90632,8.57241 0.93027,14.16091 0.0692,16.15075 -3.92666,25.60454 -15.22394,36.018 -7.99903,7.37325 -26.54416,18.93047 -34.23251,21.3335 -2.2,0.68762 -4.31936,1.43148 -4.7097,1.65301 -0.39033,0.22154 2.08467,3.84916 5.5,8.06137 5.90085,7.27767 9.13164,10.7371 15.73438,16.84789 1.59941,1.48024 3.42752,4.31899 4.06247,6.30833 0.63495,1.98935 1.55009,4.04449 2.03365,4.56699 0.48356,0.5225 0.8792,6.25089 0.8792,12.72976 0,18.44475 -1.76429,21.02444 -16.31647,23.85733 -6.68201,1.3008 -12.1867,0.72583 -25.61627,-2.67562 -12.7884,-3.23905 -17.95041,-5.75308 -35.45635,-17.2681 -2.13901,-1.40698 -8.83445,-7.8991 -14.87877,-14.42691 l -10.98967,-11.86876 0.67046,-7.39885 c 0.79998,-8.82805 -0.45774,-9.65528 -5.3289,-3.50495 -3.92674,4.95792 -3.92576,8.13943 0.006,19.1061 3.71755,10.36944 4.81562,16.3295 5.55485,30.15037 0.51701,9.66628 0.32683,11.40046 -2.05832,18.7684 -4.69481,14.50275 -7.22187,19.17473 -13.6738,25.2799 -3.94266,3.73076 -7.98904,6.45525 -11.7175,7.88956 -7.30909,2.81176 -20.06883,3.5097 -25.59724,1.40014 z M 279.17596,417.75 c 8.83253,-5.0875 16.7356,-10.26645 17.56236,-11.50879 0.82677,-1.24233 2.5607,-8.44233 3.85318,-16 C 303.17954,375.10786 303.43789,372 302.10782,372 c -0.4907,0 -5.3282,4.03822 -10.75,8.97381 -11.98889,10.91378 -16.38161,12.73108 -33.08294,13.68667 l -11.14693,0.63778 0.18603,5.27316 c 0.23045,6.53247 -2.22159,10.30169 -8.03946,12.35809 -3.5066,1.23945 -4.5439,1.23936 -7.802,-6.9e-4 -7.59418,-2.89036 -10.35712,-11.53591 -5.69979,-17.83529 3.72249,-5.03493 5.83751,-4.03309 -24.27273,-11.49759 -7.7,-1.90888 -15.0125,-3.77635 -16.25,-4.14994 l -2.25,-0.67926 0,18.46164 c 0,16.72305 0.17502,18.62004 1.85848,20.14355 1.07927,0.97672 9.1503,3.31805 19.25,5.58424 17.07439,3.83119 17.77096,3.90364 38.19993,3.97309 L 263.11682,427 279.17596,417.75 z M 142.5,395 c -0.33992,-0.55 -1.06803,-1 -1.61803,-1 -0.55,0 -0.72189,0.45 -0.38197,1 0.33992,0.55 1.06803,1 1.61803,1 0.55,0 0.72189,-0.45 0.38197,-1 z m 100.60875,-17.63103 c 1.55375,-1.87216 8.33023,-1.74989 9.93122,0.17919 0.8981,1.08215 2.66575,1.45841 5.87244,1.25 4.39681,-0.28576 4.60838,-0.44212 5.08759,-3.76001 0.42783,-2.96214 0.97504,-3.55859 3.79096,-4.13208 6.53513,-1.33093 9.30376,-6.35028 6.80348,-12.33429 -1.62822,-3.89687 -6.49292,-5.98438 -12.59444,-5.40445 -3.21019,0.30512 -3.52152,0.62248 -3.75987,3.83267 -0.84993,11.44713 -1.90246,11.94865 -4.74921,2.26299 -1.2117,-4.1226 -2.06885,-5.36994 -4.02807,-5.86167 -3.37596,-0.84731 -5.0424,0.79416 -7.03097,6.92564 -2.20559,6.80065 -2.71895,7.22128 -6.08411,4.98519 -1.56627,-1.04076 -3.72099,-2.35641 -4.78825,-2.92367 -3.70194,-1.96758 -3.03544,-3.49758 1.40938,-3.23532 2.76772,0.16331 4.47432,-0.24078 5.08347,-1.20366 1.42258,-2.24866 1.14824,-2.92273 -1.61747,-3.97425 -6.99266,-2.65861 -14.4349,0.5189 -14.4349,6.16307 0,4.35199 1.36936,6.27355 5.93924,8.33428 5.49005,2.47567 5.33948,4.5274 -0.33225,4.5274 -4.97927,0 -7.0668,2.45939 -3.99443,4.70597 2.41924,1.76899 17.97148,1.50016 19.49619,-0.337 z m 4.57458,-8.01897 c -0.99755,-0.99755 -0.83596,-4.35 0.20968,-4.35 1.30643,0 2.31566,3.19133 1.32311,4.18388 -0.4672,0.4672 -1.15695,0.54195 -1.53279,0.16612 z m 17.01791,-4.9821 c -1.00269,-1.00269 -0.86641,-4.14779 0.20852,-4.81213 1.75672,-1.08571 4.19898,0.67789 3.89311,2.81129 -0.30299,2.11332 -2.78056,3.32192 -4.10163,2.00084 z m 34.37545,-15.21509 c -3.34266,-13.61075 -6.10818,-41.42068 -5.10751,-51.36079 0.45833,-4.55276 0.91559,-5.45671 3.3484,-6.61938 1.54967,-0.7406 3.67009,-2.74839 4.71204,-4.46175 1.68707,-2.77415 1.73003,-3.28464 0.39248,-4.66304 -0.82609,-0.85132 -3.48377,-5.68925 -5.90596,-10.75095 -5.11461,-10.68813 -9.39739,-14.59758 -17.15666,-15.66111 -4.09805,-0.5617 -5.24923,-0.29119 -8.578,2.01565 -2.11461,1.46542 -4.61801,3.66123 -5.56311,4.87957 C 263.37282,264.91013 245.59229,277 243.93888,277 c -1.97851,0 -12.82574,5.99955 -14.11676,7.80791 -2.62537,3.67743 -6.28111,5.10044 -14.83007,5.7727 -4.67063,0.36728 -10.95145,1.51189 -13.95739,2.54359 -3.00594,1.03169 -6.17704,1.8758 -7.04689,1.8758 -0.86986,0 -4.62154,-1.99667 -8.33708,-4.43704 -3.71554,-2.44038 -9.09443,-5.19429 -11.95311,-6.11982 -2.85867,-0.92552 -6.67617,-2.36276 -8.48334,-3.19386 -1.80716,-0.83111 -3.56419,-1.23266 -3.90451,-0.89235 -0.34031,0.34032 1.65049,5.49401 4.42401,11.45266 4.83794,10.39388 16.24324,48.4599 16.28157,54.34095 0.0258,3.96585 1.24146,5.00123 4.55111,3.87637 1.61347,-0.54838 12.15858,-3.04036 23.43358,-5.53773 25.50127,-5.64844 23.3406,-4.88319 25.28189,-8.95413 1.96678,-4.12436 6.6542,-6.84018 10.2488,-5.93799 1.40138,0.35172 3.70867,2.16127 5.12732,4.02122 2.29494,3.00881 3.10515,3.38172 7.34738,3.38172 2.62241,0 8.5315,1.15309 13.13131,2.56242 4.59982,1.40934 11.72217,3.55818 15.82746,4.7752 6.7863,2.01182 7.5198,2.48293 8.07682,5.18758 1.02743,4.98865 6.3985,16.14681 6.79111,14.10819 0.19359,-1.00528 -1.04633,-7.52154 -2.7554,-14.48058 z m -58.76252,-46.66276 c -6.38431,-2.6844 -6.11543,-12.96927 0.39843,-15.24002 6.87707,-2.39736 12.76377,4.28077 9.87271,11.20003 -1.75965,4.21145 -5.9466,5.85832 -10.27114,4.03999 z M 200,300.22943 c 0,-1.96789 2.79142,-3.20803 9.29359,-4.12885 3.65066,-0.51699 7.07195,-1.20846 7.60288,-1.5366 0.53094,-0.32813 1.21647,-0.19025 1.52342,0.3064 1.07648,1.74178 -2.68558,3.55371 -8.77403,4.22586 -3.38022,0.37316 -6.93336,1.00232 -7.89586,1.39811 -0.96897,0.39846 -1.75,0.28022 -1.75,-0.26492 z m 77.42,-9.5669 c -4.906,-2.3856 -11.9575,-5.13557 -15.67,-6.11104 -8.65449,-2.27399 -8.93112,-4.05663 -0.5,-3.22197 9.53591,0.94404 13.61586,2.46733 18.06894,6.74625 2.24027,2.15266 4.88499,4.17157 5.87714,4.48646 0.99216,0.3149 1.80392,0.99222 1.80392,1.50516 0,1.29601 0.32452,1.41135 -9.58,-3.40486 z"
       id="path2999"
       inkscape:connector-curvature="0" />
    <path
       style="fill:#726f86"
       d="m 157.08654,674.96976 c -2.97741,-1.06471 -6.85924,-3.40598 -8.62629,-5.2028 -1.76705,-1.79683 -5.58727,-5.27775 -8.48939,-7.73539 -3.20937,-2.71784 -6.06079,-6.24376 -7.27831,-9 -1.10096,-2.49236 -3.03521,-6.10657 -4.29834,-8.03157 -1.96453,-2.99393 -2.46339,-5.70212 -3.45017,-18.73007 -0.86132,-11.3714 -0.86626,-16.0543 -0.0195,-18.4833 0.62374,-1.78927 1.40804,-9.33574 1.74287,-16.76993 0.53792,-11.94298 0.35187,-14.50633 -1.598,-22.0167 -3.12131,-12.02248 -3.84129,-13.20703 -8.91906,-14.67406 C 110.1284,552.58612 99.87618,543.39927 96.584104,536.79293 93.475446,530.55467 93.418431,529.08535 96,521.74032 c 1.309231,-3.72499 2,-8.25381 2,-13.11239 0,-5.67067 1.095172,-11.51675 4.64121,-24.77498 2.55266,-9.54412 4.96834,-19.37795 5.36817,-21.85295 1.0277,-6.36157 3.61881,-12.86243 5.90904,-14.8253 C 115.93658,445.44502 119,436.45076 119,432.25508 c 0,-2.38915 9.17671,-35.69739 11.04877,-40.10315 0.66703,-1.56982 1.52405,-2.1461 2.58572,-1.7387 1.32621,0.50892 1.44781,0.15417 0.73762,-2.15193 -0.46772,-1.51871 -0.85528,-5.54998 -0.86125,-8.95837 -0.0132,-7.51655 -1.30225,-9.32486 -4.94559,-6.93766 -1.39558,0.91442 -3.24838,2.74765 -4.11733,4.07383 -1.82512,2.7855 -6.54135,4.73924 -8.50728,3.52423 -0.74077,-0.45782 -2.71796,-3.67436 -4.39376,-7.14787 L 107.5,366.5 l -4.65833,-0.17691 c -2.56208,-0.0973 -6.027231,-0.88481 -7.700338,-1.75 C 93.248298,363.59416 89.527495,363 85.290207,363 c -5.726107,0 -7.007773,-0.31811 -8.058134,-2 -0.823857,-1.3192 -2.352429,-2.00921 -4.490547,-2.02705 -10.0694,-0.0841 -32.15404,-15.30148 -34.134489,-23.5204 -0.3913,-1.6239 -2.050196,-4.84315 -3.686436,-7.15389 C 31.18796,323.02734 29.193845,317.56105 27.515602,308 c -0.724057,-4.125 -2.755422,-11.51456 -4.514144,-16.42125 -2.849681,-7.95037 -3.14065,-9.74602 -2.67368,-16.5 0.954041,-13.79871 4.27922,-25.48895 9.169219,-32.23597 1.332497,-1.83853 3.368815,-5.0673 4.525152,-7.17504 1.156337,-2.10774 3.476462,-4.58274 5.155834,-5.5 1.679371,-0.91726 4.824772,-3.11424 6.989779,-4.8822 5.363218,-4.37961 9.641969,-5.04684 15.841686,-2.47036 11.308859,4.69975 16.022272,9.77604 17.349131,18.68482 l 0.595753,4 -2.029949,-4.5 c -3.423,-7.58812 -6.841825,-11.74981 -11.028684,-13.42506 -6.743869,-2.69836 -8.550385,-2.18945 -11.270767,3.17506 -1.324819,2.6125 -3.357399,5.60724 -4.516846,6.65499 -1.159447,1.04774 -2.124453,2.39774 -2.144458,3 -0.02,0.60225 -2.209292,3.94955 -4.865084,7.43844 -4.347016,5.71064 -4.891075,7.01443 -5.453857,13.06974 -0.408079,4.39078 -0.158442,8.43822 0.718951,11.65657 C 40.10289,275.28138 41.706591,281.1 42.927417,285.5 47.67256,302.60204 49,308.04809 49,310.41382 c 0,1.35079 0.40267,3.49778 0.894823,4.77108 1.333419,3.44984 10.957049,14.13722 13.975238,15.52 3.960957,1.81469 10.755389,1.53015 14.919777,-0.62482 4.670968,-2.41712 11.555418,-12.64969 13.285972,-19.74736 1.134338,-4.65235 1.043859,-5.82534 -0.907961,-11.771 C 88.493502,290.4151 88.49094,290 91.11501,290 c 1.991129,0 2.024676,-0.13787 0.57274,-2.3538 -2.214402,-3.37961 -3.072623,-9.05854 -1.744103,-11.5409 1.026535,-1.9181 1.990536,-2.10568 10.841533,-2.10958 9.11504,-0.004 9.99265,-0.18897 14.21482,-2.99572 5.76112,-3.82979 10.1056,-3.9525 12.92742,-0.36514 1.13992,1.44917 2.07258,3.64407 2.07258,4.87755 0,1.23349 0.675,2.8029 1.5,3.48759 1.59945,1.32742 2.04998,4 0.67431,4 C 130.43005,283 127,278.254 127,275.84054 c 0,-3.26614 -3.08426,-6.12058 -5.60538,-5.18771 -1.04204,0.38558 -3.69462,1.85893 -5.89462,3.27411 -3.54004,2.27719 -5.0349,2.57306 -13,2.57306 l -9,0 -0.306045,3.67753 c -0.267029,3.2087 0.33416,4.38446 4.715825,9.22285 8.71559,9.62405 9.4969,11.89575 9.91166,28.81867 l 0.36075,14.71906 -3.26107,5.78094 c -3.93187,6.97007 -12.345747,17.84618 -14.422516,18.64311 C 89.674372,357.67845 89,358.29288 89,358.72756 c 0,1.46614 12.39858,5.19909 15.28504,4.602 3.67983,-0.76121 5.96432,1.3933 8.74696,8.24928 2.72713,6.71923 4.80355,7.01527 9.968,1.42116 3.16836,-3.43195 4.28264,-4 7.84639,-4 l 4.15361,0 0,8.45332 c 0,9.53679 -1.06367,8.04602 11.5,16.11752 3.85,2.47343 7.06059,5.04434 7.13465,5.71315 0.0741,0.6688 0.18656,1.64351 0.25,2.16601 0.0634,0.5225 0.62201,0.44334 1.24125,-0.1759 0.83454,-0.83454 0.46287,-3.40944 -1.43622,-9.95 -1.71722,-5.91417 -3.77104,-18.88212 -6.22803,-39.3241 -2.01625,-16.775 -4.9792,-38.55388 -6.58434,-48.39752 -1.60514,-9.84364 -2.63768,-18.78212 -2.29453,-19.8633 0.39018,-1.22936 3.76947,-3.43983 9.02057,-5.90058 4.61816,-2.16414 8.39665,-4.3305 8.39665,-4.81412 0,-0.48363 -1.2375,-1.79256 -2.75,-2.90875 -8.96664,-6.61716 -12.23195,-9.82702 -12.83365,-12.61573 -0.35601,-1.65 -1.08323,-3.54177 -1.61603,-4.20393 -0.53281,-0.66216 -2.48072,-4.3589 -4.32869,-8.21496 -1.84797,-3.85607 -4.27522,-8.2643 -5.3939,-9.79607 -1.87071,-2.5615 -3.51235,-8.53404 -6.45552,-23.48616 -0.61722,-3.13561 -1.58528,-6.16369 -2.15126,-6.72905 -0.56598,-0.56536 -6.15708,-3.62486 -12.42467,-6.79888 -13.764313,-6.9705 -16.267676,-9.70294 -19.623584,-21.41925 -1.992016,-6.95463 -2.236615,-9.1881 -1.462216,-13.3517 0.51148,-2.75 1.229331,-9.18706 1.595223,-14.30457 0.532436,-7.44686 1.102437,-9.84274 2.85491,-12 1.204308,-1.48249 3.634733,-4.99284 5.400944,-7.80078 1.766212,-2.80795 4.103073,-5.9124 5.193023,-6.89879 1.73326,-1.56859 1.90471,-2.6221 1.36746,-8.40275 -1.62414,-17.475087 5.65389,-28.427334 25.37689,-38.188078 7.19164,-3.55908 7.44313,-3.857469 8.34451,-9.900594 2.17052,-14.551729 4.94495,-21.964471 11.96825,-31.97688 2.64619,-3.772405 5.24022,-6.285755 7.18849,-6.964927 C 160.65465,25.527226 171.06179,25.757697 176,27.5 c 6.39401,2.255937 13.52131,1.829489 26.64203,-1.594072 10.11835,-2.640159 13.17831,-3.034076 20.85797,-2.685108 12.84637,0.583746 17.54342,3.341972 25.27016,14.839276 4.42208,6.58 10.63594,19.384291 13.16889,27.135809 C 264.19155,72.089179 267.25957,77 269.31361,77 c 2.4208,0 24.35745,14.086517 28.35033,18.205039 5.04602,5.204791 10.91465,15.819181 11.79548,21.334071 0.38377,2.40279 -0.0121,7.22069 -0.97705,11.89252 l -1.62217,7.85342 4.92593,4.30908 c 5.95781,5.21175 12.6302,15.93602 14.52014,23.33766 1.15488,4.52293 1.16995,6.36347 0.0901,11 -0.7133,3.06251 -2.01547,8.98282 -2.89371,13.15622 -1.39444,6.62641 -2.13232,8.11359 -5.82258,11.7353 -3.92173,3.84889 -11.57044,7.67745 -19.12705,9.57404 -5.08523,1.27631 -8.42333,4.38591 -9.55714,8.90294 -0.57979,2.30984 -2.84772,7.91589 -5.03984,12.45789 -2.19212,4.542 -4.65965,10.842 -5.48339,14 -1.38028,5.29164 -1.36414,5.83982 0.20597,6.99182 0.93702,0.6875 2.7727,1.25 4.07927,1.25 2.27764,0 8.34193,3.853 11.0174,7 1.79621,2.11278 7.19598,12.66701 8.78516,17.17121 2.6237,7.43638 -0.56983,4.84468 -4.49245,-3.64583 -6.05375,-13.10331 -9.96589,-16.96656 -18.9074,-18.67114 -3.89481,-0.74249 -4.7868,-0.51946 -8.7055,2.17668 -2.40133,1.65216 -4.94859,3.8034 -5.66056,4.78053 -1.19881,1.64527 -3.84376,3.58026 -15.0445,11.00627 -2.3375,1.54974 -6.35337,3.59892 -8.92415,4.55373 -4.22466,1.56908 -7.1847,3.48383 -14.82585,9.59035 -1.81248,1.44846 -5.25009,2.31079 -12.5,3.13563 -5.5,0.62576 -11.51746,1.75982 -13.37212,2.52015 -5.31814,2.1802 -7.61941,1.69171 -14.83817,-3.14966 -3.71667,-2.49264 -9.5625,-5.39842 -12.99073,-6.45729 -3.42823,-1.05888 -7.59796,-2.631 -9.26607,-3.49361 -2.75659,-1.42549 -3.03291,-1.42505 -3.03291,0.005 0,0.86525 2.27793,6.38931 5.06207,12.27568 5.38568,11.38667 14.91595,43.59605 17.1746,58.04483 0.68443,4.37836 1.35934,6.58707 1.57601,5.15767 0.52912,-3.49063 1.71938,-4.65331 5.45333,-5.32697 6.15372,-1.11021 39.2468,-8.72351 42.48399,-9.77375 1.7875,-0.57991 3.25,-1.7291 3.25,-2.55376 0,-0.82465 1.31538,-2.81475 2.92308,-4.42244 4.1621,-4.16211 8.15916,-3.96643 11.78429,0.57689 2.3824,2.98584 3.4003,3.49998 6.92933,3.5 2.27519,2e-5 7.90019,1.13637 12.5,2.52523 4.59982,1.38886 12.08623,3.48958 16.63648,4.66827 7.33668,1.90049 8.33399,2.43532 8.81037,4.7248 0.86211,4.14337 5.34517,15.60797 6.91352,17.68009 1.36943,1.8093 1.44087,1.77294 1.47113,-0.74883 0.0175,-1.45775 -1.48306,-9.10775 -3.33456,-17 -3.61725,-15.41898 -6.39902,-43.62548 -5.1264,-51.98056 0.55141,-3.62018 1.2069,-4.62605 3.82455,-5.86897 1.7375,-0.825 3.69552,-2.59851 4.35115,-3.94113 2.59347,-5.31097 19.18935,-8.34157 26.00827,-4.74941 1.75517,0.9246 5.13017,4.09993 7.5,7.05628 6.65239,8.2988 16.38438,21.81779 18.79239,26.10506 3.71423,6.61288 6.96789,10.26915 10.30463,11.57972 3.75793,1.476 10.05758,7.17011 12.66708,11.44948 1.69462,2.77904 5.98535,17.88245 6.091,21.44039 0.0255,0.85779 3.39433,5.15961 7.48634,9.55961 4.09202,4.4 7.44618,8.57364 7.45369,9.27475 0.0228,2.12798 4.69442,3.22422 13.82876,3.24506 9.68672,0.0221 19.67517,1.25486 28.6849,3.54026 5.41052,1.37243 6.79946,2.32846 14.13724,9.73094 8.02422,8.09497 8.16147,8.31858 9.88144,16.0986 1.70742,7.72322 1.70166,7.97628 -0.27321,12 -2.31323,4.71311 -4.7808,7.33622 -11.54958,12.27755 -6.42282,4.68877 -18.49952,6.80097 -33.69589,5.89338 -14.18658,-0.84728 -20.27039,-2.17926 -28.22666,-6.17986 -6.67677,-3.35723 -6.777,-3.37369 -13.51186,-2.21879 -9.72777,1.66813 -14.99262,-0.10628 -17.74797,-5.9816 -2.24697,-4.79128 -4.83171,-5.23828 -5.32993,-0.92174 C 355.00955,427.76635 354.502,429 354.0557,429 c -2.64105,0 -8.2505,-3.47322 -11.60347,-7.18456 -2.13547,-2.3637 -5.99977,-5.97112 -8.58734,-8.01648 -2.58758,-2.04535 -4.99575,-4.63589 -5.35149,-5.75675 -0.35575,-1.12086 -2.63505,-3.40586 -5.06511,-5.07779 -4.26696,-2.93575 -7.16553,-6.58052 -6.08922,-7.65683 0.58261,-0.5826 7.74904,4.94278 11.02009,8.49658 7.62882,8.28827 20.37471,20.13707 21.6905,20.16386 0.87199,0.0178 4.18666,-3.82068 7.45751,-8.63591 8.90948,-13.11618 16.35567,-21.10784 26.8642,-28.83212 5.23775,-3.85 9.7381,-7.52291 10.00077,-8.16203 0.26266,-0.63912 -2.64311,-4.58545 -6.45728,-8.76963 -4.27011,-4.68435 -6.92967,-8.46463 -6.92135,-9.83797 0.007,-1.2267 -0.96604,-5.96298 -2.16327,-10.52507 -2.53491,-9.65935 -7.12661,-15.78628 -14.72689,-19.65081 -4.79263,-2.43692 -7.06764,-4.97999 -12.11876,-13.5467 -1.63622,-2.77504 -7.14412,-10.65637 -12.23977,-17.51407 -10.70335,-14.40451 -13.22861,-16.07945 -22.49669,-14.92148 -6.17247,0.7712 -7.49733,2.4369 -4.55641,5.72864 4.43048,4.95899 6.39642,9.92683 8.83697,22.33069 1.39258,7.07764 3.01387,13.99343 3.60286,15.36843 0.589,1.375 1.25347,5.52824 1.4766,9.22942 0.22314,3.70118 0.84808,7.89297 1.38878,9.3151 0.54069,1.42212 0.97765,4.01888 0.97101,5.77058 -0.0113,2.98322 -4.58484,18.05937 -6.7591,22.28054 -0.5395,1.0474 -2.84656,5.72936 -5.1268,10.40436 l -4.1459,8.5 4.01814,13 c 2.20997,7.15 4.01984,14.32042 4.02193,15.93428 0.002,1.61385 0.8766,4.76385 1.94336,7 2.00741,4.20793 5.78635,18.55053 5.8138,22.06572 0.0209,2.67083 3.90196,23.07916 5.70673,30.00812 2.21222,8.49329 2.90736,21.11719 1.56545,28.42888 -2.26112,12.32024 -8.78061,21.35785 -23.11094,32.0375 C 303.9669,547.64275 288.2461,556 284.65017,556 c -1.39267,0 -2.79664,0.42798 -3.11992,0.95106 -0.77413,1.25257 10.30431,14.92065 18.27966,22.55263 8.98218,8.59546 11.09359,14.11646 10.68638,27.94319 -0.41429,14.06725 -1.54353,16.89696 -7.82055,19.59727 -8.40559,3.61599 -17.27822,3.65571 -31.17574,0.13958 -12.554,-3.17622 -19.52117,-6.09019 -28.16947,-11.78168 C 240.48733,613.53092 237.67287,612 237.07619,612 c -1.10107,0 -13.14409,-11.7082 -22.96826,-22.32969 l -5.39207,-5.82969 0.60785,-7.88244 c 0.81672,-10.59103 -0.11579,-11.02407 -6.70485,-3.11357 -1.99037,2.38954 -3.61886,5.42702 -3.61886,6.74995 0,1.32294 1.39731,6.56786 3.10514,11.65539 3.08079,9.17753 3.59034,11.51469 6.01436,27.58601 1.49623,9.92004 0.85728,13.82443 -4.7698,29.14634 -3.46608,9.43775 -4.47651,11.11435 -10.13983,16.82493 -5.15692,5.19996 -7.49894,6.75679 -13,8.64159 -9.96957,3.41581 -16.60414,3.8522 -23.12333,1.52094 z M 439,438.11266 c 5.94934,-0.65696 7.19892,-1.24604 14.75,-6.95349 7.96228,-6.01826 8.25,-6.37777 8.25,-10.30867 0,-4.92907 -4.70609,-11.07037 -14.313,-18.67798 -12.27981,-9.72426 -14.40684,-10.2888 -40.17598,-10.66333 -18.75678,-0.27261 -21.25602,-0.11715 -23.5,1.46169 -1.38106,0.9717 -3.44341,2.05566 -4.583,2.40881 -3.94592,1.2228 -6.12037,7.22169 -6.78045,18.70595 -0.43943,7.64545 -0.26667,11.04488 0.622,12.23905 0.67674,0.90937 3.70543,2.11512 6.73043,2.67944 3.025,0.56431 7.75,2.11444 10.5,3.44473 2.75,1.33029 6.35,2.63868 8,2.90753 3.54998,0.57844 14.58194,2.27049 23,3.52767 3.3,0.49284 7.125,0.68238 8.5,0.42122 1.375,-0.26117 5.425,-0.79785 9,-1.19262 z M 279.84135,418 c 11.22228,-6.52404 16.78485,-10.3502 17.75709,-12.21404 1.366,-2.61871 5.00187,-22.19026 5.60674,-30.18059 0.16215,-2.14205 -0.15518,-4.04078 -0.70518,-4.2194 -0.55,-0.17862 -5.59796,3.8497 -11.21769,8.95183 -12.4938,11.34306 -16.3107,12.90917 -33.28231,13.65609 l -11.5,0.50611 0.34775,5.75225 c 0.32894,5.44097 0.15848,5.94152 -3.15,9.25 C 240.69302,412.50698 239.53752,413 235.5,413 c -4.01176,0 -5.19787,-0.49787 -8.1,-3.4 -4.3665,-4.3665 -4.71119,-9.88829 -0.9,-14.41763 3.2021,-3.80548 3.15039,-4.99771 -0.25,-5.76395 -1.5125,-0.34083 -5,-1.25548 -7.75,-2.03255 -5.7775,-1.63256 -32.27233,-8.26462 -34.5,-8.63588 -2.24982,-0.37495 -2.75656,34.44641 -0.55028,37.81361 1.82745,2.78906 1.97564,2.83751 23.05028,7.53741 16.85451,3.75875 17.17117,3.78952 37,3.59509 l 20,-0.1961 16.34135,-9.5 z M 143.97727,395.60271 c -1.3625,-1.3185 -3.60227,-2.68915 -4.97727,-3.04588 -2.29048,-0.59423 -2.20984,-0.39332 0.96223,2.39729 4.22243,3.71467 7.77674,4.28883 4.01504,0.64859 z m 99.13148,-18.23374 c 1.55375,-1.87216 8.33023,-1.74989 9.93122,0.17919 0.8981,1.08215 2.66575,1.45841 5.87244,1.25 4.39681,-0.28576 4.60838,-0.44212 5.08759,-3.76001 0.42783,-2.96214 0.97504,-3.55859 3.79096,-4.13208 6.53513,-1.33093 9.30376,-6.35028 6.80348,-12.33429 -1.62822,-3.89687 -6.49292,-5.98438 -12.59444,-5.40445 -3.21019,0.30512 -3.52152,0.62248 -3.75987,3.83267 -0.84993,11.44713 -1.90246,11.94865 -4.74921,2.26299 -1.2117,-4.1226 -2.06885,-5.36994 -4.02807,-5.86167 -3.37596,-0.84731 -5.0424,0.79416 -7.03097,6.92564 -2.20559,6.80065 -2.71895,7.22128 -6.08411,4.98519 -1.56627,-1.04076 -3.72099,-2.35641 -4.78825,-2.92367 -3.70194,-1.96758 -3.03544,-3.49758 1.40938,-3.23532 2.76772,0.16331 4.47432,-0.24078 5.08347,-1.20366 1.42258,-2.24866 1.14824,-2.92273 -1.61747,-3.97425 -6.2153,-2.36305 -12.60028,-0.30066 -14.49464,4.68187 -1.35957,3.57594 1.10177,7.60715 5.99081,9.8118 5.49742,2.47899 5.35064,4.53108 -0.32408,4.53108 -4.97927,0 -7.0668,2.45939 -3.99443,4.70597 2.41924,1.76899 17.97148,1.50016 19.49619,-0.337 z m 4.57458,-8.01897 c -0.99755,-0.99755 -0.83596,-4.35 0.20968,-4.35 1.30643,0 2.31566,3.19133 1.32311,4.18388 -0.4672,0.4672 -1.15695,0.54195 -1.53279,0.16612 z m 17.01791,-4.9821 c -1.00269,-1.00269 -0.86641,-4.14779 0.20852,-4.81213 1.75672,-1.08571 4.19898,0.67789 3.89311,2.81129 -0.30299,2.11332 -2.78056,3.32192 -4.10163,2.00084 z M 98.888567,341.81701 c 2.963713,-4.48056 5.397103,-8.63485 5.407533,-9.23175 0.0104,-0.59689 -0.11581,-4.01026 -0.28054,-7.58526 l -0.29951,-6.5 -0.66895,6.5 c -0.78422,7.61996 -4.706975,16.81372 -9.010015,21.11676 -3.133547,3.13355 -3.98077,5.18803 -1.787085,4.33361 0.6875,-0.26778 3.674855,-4.15279 6.638567,-8.63336 z M 105,312 c 0,-1.58508 -0.45,-3.16008 -1,-3.5 -0.60483,-0.37381 -1,1.00929 -1,3.5 0,2.49071 0.39517,3.87381 1,3.5 0.55,-0.33992 1,-1.91492 1,-3.5 z M 301.50192,190.40342 c 4.05928,-4.38003 5.7737,-10.38498 5.30804,-18.592 -0.37164,-6.54984 -0.82604,-7.90639 -4.3624,-13.02329 -2.17116,-3.14154 -4.35121,-5.72904 -4.84457,-5.75 -1.48591,-0.0632 -9.60299,7.00023 -9.60299,8.35641 0,0.69335 1.11987,4.01666 2.4886,7.38513 1.36873,3.36846 2.88861,9.69983 3.37751,14.0697 0.4889,4.36987 1.19558,8.44144 1.57041,9.04792 1.13476,1.83607 3.52489,1.24739 6.0654,-1.49387 z M 129.73779,171.75 c 1.65678,-3.4375 4.17628,-8.85414 5.59888,-12.03698 l 2.58654,-5.78698 -5.53612,-3.54142 c -3.04486,-1.94777 -6.15318,-3.30462 -6.90736,-3.01521 -1.97773,0.75892 -4.48338,10.06826 -4.45777,16.56209 0.0218,5.51892 2.93384,14.0685 4.79187,14.0685 0.50139,0 2.26717,-2.8125 3.92396,-6.25 z M 238.45455,300.54545 C 236.90731,298.99822 236,296.94837 236,295 c 0,-3.83947 3.9005,-8 7.5,-8 3.5995,0 7.5,4.16053 7.5,8 0,3.83947 -3.9005,8 -7.5,8 -1.425,0 -3.69545,-1.10455 -5.04545,-2.45455 z"
       id="path2997"
       inkscape:connector-curvature="0" />
    <path
       style="fill:#cf3131"
       d="m 157.08654,674.96976 c -2.97741,-1.06471 -6.85924,-3.40598 -8.62629,-5.2028 -1.76705,-1.79683 -5.58727,-5.27775 -8.48939,-7.73539 -3.20937,-2.71784 -6.06079,-6.24376 -7.27831,-9 -1.10096,-2.49236 -3.03521,-6.10657 -4.29834,-8.03157 -1.96453,-2.99393 -2.46339,-5.70212 -3.45017,-18.73007 -0.86132,-11.3714 -0.86626,-16.0543 -0.0195,-18.4833 0.62374,-1.78927 1.40804,-9.33574 1.74287,-16.76993 0.53792,-11.94298 0.35187,-14.50633 -1.598,-22.0167 -3.12108,-12.02159 -3.8727,-13.27441 -8.92443,-14.8754 -5.12609,-1.62456 -16.395888,-11.70184 -19.076094,-17.05756 -2.974157,-5.9431 -3.153015,-8.39699 -1.04847,-14.3848 1.271039,-3.61634 1.981984,-8.23618 1.986289,-12.90726 0.005,-5.44047 1.171078,-11.68791 4.624175,-24.77498 2.5396,-9.625 4.97145,-19.75 5.40411,-22.5 0.97384,-6.18985 3.55643,-12.51525 5.92018,-14.5 2.04024,-1.71312 5.05928,-10.09734 5.01532,-13.92814 -0.0162,-1.41452 2.54563,-11.68436 5.69302,-22.82186 4.09612,-14.49471 6.13822,-20.25 7.18512,-20.25 0.80442,0 2.85506,1.0583 4.55698,2.35179 1.70191,1.29348 4.59601,3.12526 6.43132,4.07063 3.19376,1.6451 3.32247,1.64074 3,-0.10179 -0.19643,-1.06143 -2.70241,-2.96764 -6.00959,-4.57127 -6.66923,-3.23387 -8.42981,-6.73343 -7.34728,-14.60439 0.50129,-3.64481 0.29941,-5.08311 -0.84703,-6.03456 -1.88353,-1.5632 -3.91018,-0.54564 -8.5792,4.30751 -2.2781,2.36795 -4.3581,3.58208 -6.13668,3.58208 -2.32277,0 -3.15021,-0.92259 -6.05383,-6.75 L 107.5,366.5 l -5.5247,-0.59424 c -3.038588,-0.32683 -6.638588,-1.19116 -8.000002,-1.92074 -1.428125,-0.76532 -5.115804,-1.25432 -8.716905,-1.15589 -5.267481,0.14398 -6.43653,-0.14151 -7.490547,-1.82926 -0.85639,-1.3713 -2.351984,-2.00837 -4.758393,-2.02692 -10.309699,-0.0795 -32.391909,-15.17674 -34.402416,-23.5204 -0.3913,-1.6239 -2.050196,-4.84315 -3.686436,-7.15389 C 31.18796,323.02734 29.193845,317.56105 27.515602,308 c -0.724057,-4.125 -2.755422,-11.51456 -4.514144,-16.42125 -2.849681,-7.95037 -3.14065,-9.74602 -2.67368,-16.5 0.954041,-13.79871 4.27922,-25.48895 9.169219,-32.23597 1.332497,-1.83853 3.368815,-5.0673 4.525152,-7.17504 1.156337,-2.10774 3.476462,-4.58274 5.155834,-5.5 1.679371,-0.91726 4.824772,-3.11424 6.989779,-4.8822 5.363218,-4.37961 9.641969,-5.04684 15.841686,-2.47036 7.398373,3.07463 13.521598,7.6768 15.355225,11.54088 2.8195,5.94166 1.80068,7.46497 -1.335521,1.99683 -3.503577,-6.10867 -6.862926,-8.96177 -12.264514,-10.41627 -5.183051,-1.39565 -6.063671,-0.95821 -8.502511,4.22353 -1.123429,2.38692 -2.991992,5.19709 -4.152362,6.24484 C 49.949394,237.45273 49,238.80493 49,239.40987 c 0,0.60494 -2.451769,4.35899 -5.448376,8.34233 l -5.448377,7.24244 0.219943,8.75268 c 0.152259,6.0592 1.019517,11.3684 2.818228,17.25268 2.232764,7.30423 6.721854,25.68963 8.32898,34.11194 0.274123,1.43657 3.542924,5.7782 7.264003,9.64808 6.056585,6.29878 7.270818,7.10676 11.586528,7.70997 3.930824,0.54942 5.684277,0.24513 9.496947,-1.64808 5.698355,-2.82956 12.296889,-11.75333 14.569222,-19.70323 1.440992,-5.0414 1.414179,-5.73405 -0.424473,-10.96534 C 89.597074,293.42292 89.441112,290 91.5,290 c 1.882337,0 1.932811,-1.39591 0.105315,-2.9126 -1.724925,-1.43156 -2.597414,-7.80841 -1.482787,-10.8374 0.780502,-2.121 1.38203,-2.25 10.492122,-2.25 8.98781,0 10.00537,-0.20995 14.53977,-3 6.14125,-3.77875 10.00106,-3.88909 12.773,-0.36514 1.13992,1.44917 2.07258,3.66703 2.07258,4.92857 0,1.26154 0.675,2.96871 1.5,3.79371 C 133.35627,281.21341 133.4024,282 131.65499,282 129.53456,282 127,278.593 127,275.74269 127,273.01069 124.71013,270 122.63223,270 c -0.6737,0 -3.64666,1.52696 -6.60657,3.39324 -5.23773,3.30248 -5.59493,3.37862 -13.35501,2.84673 -6.682206,-0.45801 -8.169237,-0.2786 -9.183098,1.10794 -1.965394,2.68784 -0.534477,6.84997 4.005924,11.65209 2.340109,2.475 5.547074,6.75 7.126584,9.5 2.73938,4.76939 2.88839,5.67242 3.23072,19.5794 l 0.35888,14.57939 -3.28882,5.92061 c -3.62542,6.52654 -9.921882,14.73365 -13.871652,18.08096 -2.968799,2.51598 -3.166857,2.26639 4.117275,5.18847 4.032205,1.61755 6.662497,2.08628 9.120027,1.62525 3.06827,-0.57561 3.70106,-0.30031 5.67207,2.46772 1.22018,1.71358 2.64836,4.67239 3.17373,6.57514 0.52537,1.90274 1.83703,3.93145 2.91479,4.50826 1.65024,0.88318 2.72523,0.33254 6.80995,-3.48824 C 126.77659,369.87067 128.40716,369 131.3537,369 l 3.6463,0 0,8.42742 c 0,9.55542 -0.62316,8.67749 11.40844,16.07258 4.84083,2.97536 6.5186,4.57636 6.54972,6.25 0.0486,2.61263 3.04184,3.15465 3.04184,0.55082 0,-0.93455 -1.1051,-5.77205 -2.45577,-10.75 -1.49422,-5.507 -3.88004,-20.99301 -6.0933,-39.55082 -2.00064,-16.775 -4.72054,-37.14574 -6.04423,-45.26832 C 140.08302,296.60911 139,288.42927 139,286.55426 c 0,-4.02901 2.69681,-6.54598 9.80775,-9.15369 2.58074,-0.9464 5.36725,-2.35201 6.19225,-3.12357 1.64326,-1.53681 2.37057,-0.74076 -8.93279,-9.777 -3.27413,-2.61744 -5.2273,-5.03692 -5.65086,-7 -0.35601,-1.65 -1.08323,-3.54177 -1.61603,-4.20393 -0.53281,-0.66216 -2.48072,-4.3589 -4.32869,-8.21496 -1.84797,-3.85607 -4.27522,-8.2643 -5.3939,-9.79607 -1.87071,-2.5615 -3.51235,-8.53404 -6.45552,-23.48616 -0.61722,-3.13561 -1.58528,-6.16369 -2.15126,-6.72905 -0.56598,-0.56536 -6.15708,-3.62486 -12.42467,-6.79888 -13.764313,-6.9705 -16.267676,-9.70294 -19.623584,-21.41925 -1.992016,-6.95463 -2.236615,-9.1881 -1.462216,-13.3517 0.51148,-2.75 1.229331,-9.18706 1.595223,-14.30457 0.532436,-7.44686 1.102437,-9.84274 2.85491,-12 1.204308,-1.48249 3.634733,-4.99284 5.400944,-7.80078 1.766212,-2.80795 4.103073,-5.9124 5.193023,-6.89879 1.73326,-1.56859 1.90471,-2.6221 1.36746,-8.40275 -1.62414,-17.475087 5.65389,-28.427334 25.37689,-38.188078 7.19164,-3.55908 7.44313,-3.857469 8.34451,-9.900594 2.17052,-14.551729 4.94495,-21.964471 11.96825,-31.97688 2.64619,-3.772405 5.24022,-6.285755 7.18849,-6.964927 C 160.65465,25.527226 171.06179,25.757697 176,27.5 c 6.39401,2.255937 13.52131,1.829489 26.64203,-1.594072 10.11835,-2.640159 13.17831,-3.034076 20.85797,-2.685108 12.84637,0.583746 17.54342,3.341972 25.27016,14.839276 4.42208,6.58 10.63594,19.384291 13.16889,27.135809 C 264.19155,72.089179 267.25957,77 269.31361,77 c 2.4208,0 24.35745,14.086517 28.35033,18.205039 5.04602,5.204791 10.91465,15.819181 11.79548,21.334071 0.38377,2.40279 -0.0121,7.22069 -0.97705,11.89252 l -1.62217,7.85342 4.92593,4.30908 c 5.95781,5.21175 12.6302,15.93602 14.52014,23.33766 1.15488,4.52293 1.16995,6.36347 0.0901,11 -0.7133,3.06251 -2.01547,8.98282 -2.89371,13.15622 -1.39444,6.62641 -2.13232,8.11359 -5.82258,11.7353 -3.92173,3.84889 -11.57044,7.67745 -19.12705,9.57404 -5.08523,1.27631 -8.42333,4.38591 -9.55714,8.90294 -0.57979,2.30984 -2.84772,7.91589 -5.03984,12.45789 -4.96138,10.27979 -7.39266,19.01075 -5.82115,20.9043 0.61052,0.73564 2.33742,1.33752 3.83756,1.33752 3.22275,0 9.86723,4.56168 12.94946,8.89028 2.68689,3.77339 8.07813,15.51123 8.07813,17.58776 0,3.32899 -1.71233,1.00264 -6.26504,-8.5116 -5.33641,-11.15202 -8.96325,-14.52002 -17.31644,-16.08056 -4.191,-0.78297 -4.98334,-0.59335 -8.96346,2.14504 -2.40133,1.65216 -4.94859,3.8034 -5.66056,4.78053 -1.19881,1.64527 -3.84376,3.58026 -15.0445,11.00627 -2.3375,1.54974 -6.35337,3.59892 -8.92415,4.55373 -4.22466,1.56908 -7.1847,3.48383 -14.82585,9.59035 -1.81248,1.44846 -5.25009,2.31079 -12.5,3.13563 -5.5,0.62576 -11.51746,1.75982 -13.37212,2.52015 -5.31814,2.1802 -7.61941,1.69171 -14.83817,-3.14966 -3.71667,-2.49264 -9.5625,-5.39842 -12.99073,-6.45729 -3.42823,-1.05888 -7.59796,-2.631 -9.26607,-3.49361 -2.87463,-1.48653 -3.03291,-1.467 -3.03291,0.37428 0,1.06846 2.24519,6.59252 4.98932,12.27568 6.33076,13.1112 15.47584,46.2442 17.05858,61.80394 0.58609,5.76176 1.23354,10.64386 1.43879,10.8491 0.20524,0.20525 0.68845,-2.82647 1.0738,-6.73714 0.60344,-6.12394 0.99465,-7.17896 2.82007,-7.60519 1.16569,-0.27218 11.11944,-2.51497 22.11944,-4.98399 11,-2.46901 21.00976,-4.72303 22.2439,-5.00893 1.33675,-0.30967 2.81007,-1.87485 3.64437,-3.8716 3.06986,-7.34722 9.72012,-8.73137 14.43991,-3.00545 2.64157,3.20468 3.57136,3.64336 8.3228,3.92669 4.91626,0.29316 33.52896,8.70285 34.97822,10.2806 0.34606,0.37675 1.20427,2.48499 1.90714,4.68499 2.17698,6.81397 6.82735,16.5 7.92184,16.5 1.58003,0 1.33535,-1.72215 -2.5177,-17.72046 -3.76996,-15.65327 -6.79215,-43.97993 -5.71338,-53.55077 0.46995,-4.16936 0.94304,-4.95294 3.81246,-6.31456 1.80176,-0.855 3.80087,-2.82188 4.44248,-4.37085 0.90759,-2.19111 2.38479,-3.1995 6.65419,-4.54239 6.65973,-2.09474 16.85694,-1.7183 20.64242,0.76204 2.78432,1.82435 21.34322,26.16301 24.24464,31.79508 3.19121,6.19459 6.74352,10.04342 11.48925,12.44826 4.81757,2.44125 9.89474,7.47535 12.36202,12.25715 1.45972,2.82906 4.60463,14.44256 5.07747,18.75004 0.15066,1.3725 3.29626,5.78086 7.15837,10.03202 3.78928,4.17099 7.43046,8.55358 8.09152,9.73908 1.70288,3.05385 3.61979,3.56299 13.79808,3.66488 10.08439,0.10095 20.06075,1.34302 29,3.61055 5.41052,1.37243 6.79946,2.32846 14.13724,9.73094 8.02422,8.09497 8.16147,8.31858 9.88144,16.0986 1.70742,7.72322 1.70166,7.97628 -0.27321,12 -2.31323,4.71311 -4.7808,7.33622 -11.54958,12.27755 -6.42282,4.68877 -18.49952,6.80097 -33.69589,5.89338 -14.18658,-0.84728 -20.27039,-2.17926 -28.22666,-6.17986 -6.67677,-3.35723 -6.777,-3.37369 -13.51186,-2.21879 -5.59135,0.95881 -7.57489,0.90611 -11.27334,-0.29952 -3.80177,-1.23931 -4.83283,-2.17674 -6.74208,-6.12982 C 357.83735,421.74537 355,421.10468 355,425.54797 c 0,6.77093 -6.0955,3.06033 -22.74475,-13.84572 -1.51539,-1.53876 -5.59528,-5.59872 -9.06643,-9.02214 -7.07602,-6.97872 -7.39556,-9.79253 -0.41419,-3.64728 2.47882,2.18194 4.81073,3.96717 5.18202,3.96717 0.37129,0 1.68672,1.8 2.92319,4 1.23647,2.2 2.66798,4 3.18113,4 0.51315,0 4.28981,3.18864 8.39257,7.08587 4.10277,3.89722 7.93982,6.78905 8.52678,6.42629 0.58697,-0.36276 3.75721,-4.66016 7.04497,-9.54978 8.52952,-12.68521 15.5883,-20.19497 26.99675,-28.72154 5.48788,-4.1016 9.97796,-7.84987 9.97796,-8.32951 0,-0.47964 -3.15,-4.32765 -7,-8.55113 -4.85217,-5.32287 -7.00526,-8.47394 -7.01714,-10.26963 -0.0329,-4.97742 -3.84877,-17.28958 -6.57989,-21.23059 -2.98016,-4.30037 -6.13575,-6.80737 -11.01119,-8.74798 -3.3246,-1.32331 -6.35794,-4.84177 -10.42647,-12.09392 -1.39407,-2.48494 -7.0948,-10.62333 -12.66827,-18.08531 -9.06166,-12.13208 -10.57835,-13.70048 -14.33815,-14.82694 -4.7552,-1.42469 -13.25239,-0.66204 -14.91265,1.33846 -0.77583,0.93482 -0.23503,2.29882 2.04708,5.16308 4.86079,6.10076 5.81078,8.57903 8.49601,22.16386 1.38381,7.00082 2.95735,13.87075 3.49674,15.26651 0.5394,1.39575 1.17537,5.21072 1.41328,8.47771 0.2379,3.26699 0.98172,8.08273 1.65293,10.70165 1.1322,4.41761 0.99464,5.43081 -1.90375,14.02229 -4.99751,14.81369 -5.87868,16.92935 -9.66355,23.20178 -1.97174,3.26765 -3.58498,6.71068 -3.58498,7.65119 0,0.94051 1.8,7.4796 4,14.53133 2.2,7.05172 4.00277,14.18368 4.00616,15.84881 0.003,1.66512 0.68381,4.32688 1.51204,5.91502 2.08119,3.99065 4.60507,12.97266 5.5026,19.58268 1.11357,8.20104 4.78391,27.19624 6.5259,33.77366 2.35633,8.89704 2.14075,26.35018 -0.4153,33.62262 -2.7684,7.87659 -8.71818,15.48642 -17.67,22.6001 -9.12147,7.24849 -25.97907,16.91861 -30.88016,17.71395 -1.99639,0.32397 -3.85683,0.95636 -4.13429,1.40531 -0.70475,1.1403 10.78102,15.16234 18.36296,22.41785 8.98218,8.59546 11.09359,14.11646 10.68638,27.94319 -0.41429,14.06725 -1.54353,16.89696 -7.82055,19.59727 -8.40559,3.61599 -17.27822,3.65571 -31.17574,0.13958 -12.554,-3.17622 -19.52117,-6.09019 -28.16947,-11.78168 C 240.48733,613.53092 237.67287,612 237.07619,612 c -1.10107,0 -13.14409,-11.7082 -22.96826,-22.32969 l -5.39207,-5.82969 0.60785,-7.88244 c 0.63723,-8.26353 -0.11551,-10.19715 -3.03424,-7.79427 -3.10369,2.55516 -7.28947,9.15072 -7.28947,11.48608 0,1.29245 1.39731,6.51243 3.10514,11.59996 3.08079,9.17753 3.59034,11.51469 6.01436,27.58601 1.49623,9.92004 0.85728,13.82443 -4.7698,29.14634 -3.46608,9.43775 -4.47651,11.11435 -10.13983,16.82493 -5.15692,5.19996 -7.49894,6.75679 -13,8.64159 -9.96957,3.41581 -16.60414,3.8522 -23.12333,1.52094 z m 280.75163,-236.0087 c 7.51873,-0.94277 8.77279,-1.42874 13.54783,-5.25 2.89417,-2.31608 6.49929,-5.11106 8.01139,-6.21106 1.95777,-1.42422 2.89989,-3.15157 3.27245,-6 0.46989,-3.59259 0.0805,-4.54539 -3.82333,-9.35465 -5.68208,-6.99999 -18.20486,-16.38579 -25.52936,-19.13421 -4.47977,-1.68097 -7.85206,-2.16227 -14.66827,-2.09349 -4.86812,0.0491 -9.16544,0.28357 -9.54959,0.52099 -0.38416,0.23742 -5.17615,0.0729 -10.64888,-0.36554 -8.00222,-0.64113 -10.53778,-0.50612 -12.95041,0.68956 -11.58903,5.74342 -12.64376,7.34486 -13.41574,20.36971 -0.32135,5.42199 -0.23778,11.19537 0.18573,12.82974 0.7908,3.05182 2.07185,3.65942 11.73001,5.56359 1.925,0.37953 4.85,1.49922 6.5,2.48821 2.73696,1.64051 10.98614,3.41284 27,5.80096 8.64145,1.28868 11.0865,1.30625 20.33817,0.14619 z M 266.28984,425.86549 c 10.80623,-5.47865 30.00586,-17.38715 31.3568,-19.44895 C 298.95389,404.42143 304,377.70868 304,372.78355 c 0,-3.43519 -3.05222,-1.71008 -12.73618,7.19846 -12.18733,11.21147 -16.41845,12.94814 -33.48427,13.74371 l -11.72045,0.54638 0.60889,5.82551 c 0.59267,5.67035 0.51464,5.91976 -2.92955,9.36395 C 240.691,412.509 239.54782,413 235.5,413 c -4.01176,0 -5.19787,-0.49787 -8.1,-3.4 -4.41459,-4.41459 -4.71504,-9.88371 -0.79868,-14.53804 4.43519,-5.27093 4.96081,-5.0254 -27.10132,-12.65964 -6.05,-1.44055 -12.18045,-3.22744 -13.62322,-3.97087 -1.44276,-0.74343 -2.90526,-1.06963 -3.25,-0.7249 -0.34473,0.34473 -0.62678,9.10178 -0.62678,19.46012 0,22.21152 -0.23431,21.70174 11.1209,24.19601 4.0585,0.89149 12.3291,2.71144 18.3791,4.04434 9.47426,2.08732 13.74493,2.43522 30.78984,2.50822 18.31855,0.0785 20.10284,-0.0739 24,-2.04975 z m -22.23316,-47.43378 c 1.55778,-1.87702 6.36315,-1.8357 7.94332,0.0683 1.53913,1.85454 10.31105,2.04067 11.78174,0.25 0.56464,-0.6875 1.18224,-2.3484 1.37244,-3.69089 0.24839,-1.75318 1.20659,-2.66269 3.40092,-3.22809 7.49733,-1.93181 10.50417,-11.2263 5.31162,-16.41885 -2.58909,-2.58909 -9.87711,-4.12835 -14.29581,-3.01932 -2.19909,0.55193 -2.57091,1.1969 -2.57091,4.45954 0,5.45839 -1.15165,5.86188 -2.94724,1.03259 -1.92959,-5.18967 -4.00854,-6.64122 -7.65751,-5.34658 -2.08418,0.73946 -3.13444,2.21143 -4.54634,6.37184 -1.00983,2.97563 -2.04046,5.61464 -2.29029,5.86447 C 239.0215,365.31184 230,361.06965 230,360.27995 c 0,-0.2979 1.58238,-0.28485 3.5164,0.029 2.98099,0.48375 3.76578,0.19002 5.15431,-1.92914 1.49262,-2.27803 1.49779,-2.63988 0.0583,-4.07941 -0.86881,-0.8688 -3.77119,-1.79022 -6.44974,-2.04759 -4.20722,-0.40426 -5.30629,-0.10093 -8.07467,2.22851 -4.48647,3.77512 -4.54028,9.21697 -0.12784,12.92979 1.69219,1.42389 3.69064,2.58889 4.44098,2.58889 0.75034,0 1.68578,0.52023 2.07875,1.15607 0.51394,0.83158 -0.31614,0.98883 -2.95738,0.56021 -3.17687,-0.51553 -3.89879,-0.24954 -5.35511,1.97307 -1.61684,2.46762 -1.59339,2.64168 0.59467,4.41347 2.95619,2.39377 19.25428,2.64687 21.17804,0.32889 z m 21.09782,-15.86936 c 0.19002,-0.9174 0.7955,-1.64422 1.3455,-1.61517 1.48429,0.0784 1.2116,2.31562 -0.3455,2.83465 -0.84112,0.28038 -1.21599,-0.17677 -1,-1.21948 z M 95.235441,347.63392 c 9.907219,-14.72627 9.765209,-14.42908 9.749249,-20.40334 -0.0223,-8.32847 -1.64232,-9.89834 -2.15667,-2.08985 -0.49067,7.44921 -4.261376,16.44647 -8.790935,20.97603 C 90.955231,349.19861 90.198397,351 91.985441,351 c 0.541992,0 2.004492,-1.51474 3.25,-3.36608 z M 105,312 c 0,-1.58508 -0.45,-3.16008 -1,-3.5 -0.60483,-0.37381 -1,1.00929 -1,3.5 0,2.49071 0.39517,3.87381 1,3.5 0.55,-0.33992 1,-1.91492 1,-3.5 z M 301.59092,191.26622 c 0.95358,-0.95358 2.846,-4.16317 4.20537,-7.13243 2.13432,-4.66197 2.39291,-6.33703 1.89506,-12.27543 -0.50215,-5.98955 -1.1187,-7.64969 -4.77883,-12.86757 C 300.60125,155.69586 298.25927,153 297.7081,153 295.91524,153 288,160.09002 288,161.69596 c 0,0.85914 1.08059,4.55771 2.40131,8.21905 1.32071,3.66133 2.69438,9.34078 3.05258,12.62098 1.06716,9.77231 1.33116,10.46401 3.99373,10.46401 1.32524,0 3.18972,-0.7802 4.1433,-1.73378 z M 129.82048,172.75 C 134.00733,163.79651 138,154.82309 138,154.36674 138,153.56618 127.04429,147 125.70855,147 c -0.76314,0 -1.90166,1.12842 -2.53006,2.5076 -1.75636,3.8548 -3.2529,14.85246 -2.5337,18.61956 0.79845,4.18228 4.07483,10.87284 5.32445,10.87284 0.51073,0 2.24378,-2.8125 3.85124,-6.25 z M 238.45455,300.54545 C 236.90731,298.99822 236,296.94837 236,295 c 0,-3.83947 3.9005,-8 7.5,-8 3.5995,0 7.5,4.16053 7.5,8 0,3.83947 -3.9005,8 -7.5,8 -1.425,0 -3.69545,-1.10455 -5.04545,-2.45455 z"
       id="path2995"
       inkscape:connector-curvature="0" />
    <path
       style="fill:#755454"
       d="m 157.08654,674.96976 c -2.97741,-1.06471 -6.85924,-3.40598 -8.62629,-5.2028 -1.76705,-1.79683 -5.58727,-5.27775 -8.48939,-7.73539 -3.20937,-2.71784 -6.06079,-6.24376 -7.27831,-9 -1.10096,-2.49236 -3.03521,-6.10657 -4.29834,-8.03157 -1.96453,-2.99393 -2.46339,-5.70212 -3.45017,-18.73007 -0.86132,-11.3714 -0.86626,-16.0543 -0.0195,-18.4833 0.62374,-1.78927 1.40804,-9.33574 1.74287,-16.76993 0.53792,-11.94298 0.35187,-14.50633 -1.598,-22.0167 -3.12108,-12.02159 -3.8727,-13.27441 -8.92443,-14.8754 -5.12609,-1.62456 -16.395888,-11.70184 -19.076094,-17.05756 -2.974157,-5.9431 -3.153015,-8.39699 -1.04847,-14.3848 1.271039,-3.61634 1.981984,-8.23618 1.986289,-12.90726 0.005,-5.44047 1.171078,-11.68791 4.624175,-24.77498 2.5396,-9.625 4.97145,-19.75 5.40411,-22.5 0.97384,-6.18985 3.55643,-12.51525 5.92018,-14.5 2.04024,-1.71312 5.05928,-10.09734 5.01532,-13.92814 -0.0162,-1.41452 2.54563,-11.68436 5.69302,-22.82186 4.09612,-14.49471 6.13822,-20.25 7.18512,-20.25 0.80442,0 2.85506,1.0583 4.55698,2.35179 1.70191,1.29348 4.59601,3.12526 6.43132,4.07063 3.19376,1.6451 3.32247,1.64074 3,-0.10179 -0.19643,-1.06143 -2.70241,-2.96764 -6.00959,-4.57127 -6.66923,-3.23387 -8.42981,-6.73343 -7.34728,-14.60439 0.50129,-3.64481 0.29941,-5.08311 -0.84703,-6.03456 -1.88353,-1.5632 -3.91018,-0.54564 -8.5792,4.30751 -2.2781,2.36795 -4.3581,3.58208 -6.13668,3.58208 -2.32277,0 -3.15021,-0.92259 -6.05383,-6.75 L 107.5,366.5 l -5.5247,-0.59424 c -3.038588,-0.32683 -6.638588,-1.19116 -8.000002,-1.92074 -1.428125,-0.76532 -5.115804,-1.25432 -8.716905,-1.15589 -5.267481,0.14398 -6.43653,-0.14151 -7.490547,-1.82926 -0.85639,-1.3713 -2.351984,-2.00837 -4.758393,-2.02692 -10.309699,-0.0795 -32.391909,-15.17674 -34.402416,-23.5204 -0.3913,-1.6239 -2.050196,-4.84315 -3.686436,-7.15389 C 31.18796,323.02734 29.193845,317.56105 27.515602,308 c -0.724057,-4.125 -2.755422,-11.51456 -4.514144,-16.42125 -2.849681,-7.95037 -3.14065,-9.74602 -2.67368,-16.5 0.954041,-13.79871 4.27922,-25.48895 9.169219,-32.23597 1.332497,-1.83853 3.368815,-5.0673 4.525152,-7.17504 1.156337,-2.10774 3.476462,-4.58274 5.155834,-5.5 1.679371,-0.91726 4.824772,-3.11424 6.989779,-4.8822 5.363218,-4.37961 9.641969,-5.04684 15.841686,-2.47036 7.398373,3.07463 13.521598,7.6768 15.355225,11.54088 2.8195,5.94166 1.80068,7.46497 -1.335521,1.99683 -3.503577,-6.10867 -6.862926,-8.96177 -12.264514,-10.41627 -5.183051,-1.39565 -6.063671,-0.95821 -8.502511,4.22353 -1.123429,2.38692 -2.991992,5.19709 -4.152362,6.24484 C 49.949394,237.45273 49,238.80493 49,239.40987 c 0,0.60494 -2.451769,4.35899 -5.448376,8.34233 l -5.448377,7.24244 0.219943,8.75268 c 0.152259,6.0592 1.019517,11.3684 2.818228,17.25268 2.232764,7.30423 6.721854,25.68963 8.32898,34.11194 0.274123,1.43657 3.542924,5.7782 7.264003,9.64808 6.056585,6.29878 7.270818,7.10676 11.586528,7.70997 3.930824,0.54942 5.684277,0.24513 9.496947,-1.64808 5.698355,-2.82956 12.296889,-11.75333 14.569222,-19.70323 1.440992,-5.0414 1.414179,-5.73405 -0.424473,-10.96534 C 89.597074,293.42292 89.441112,290 91.5,290 c 1.882337,0 1.932811,-1.39591 0.105315,-2.9126 -1.724925,-1.43156 -2.597414,-7.80841 -1.482787,-10.8374 0.780502,-2.121 1.38203,-2.25 10.492122,-2.25 8.98781,0 10.00537,-0.20995 14.53977,-3 6.14125,-3.77875 10.00106,-3.88909 12.773,-0.36514 1.13992,1.44917 2.07258,3.66703 2.07258,4.92857 0,1.26154 0.675,2.96871 1.5,3.79371 C 133.35627,281.21341 133.4024,282 131.65499,282 129.53456,282 127,278.593 127,275.74269 127,273.01069 124.71013,270 122.63223,270 c -0.6737,0 -3.64666,1.52696 -6.60657,3.39324 -5.23773,3.30248 -5.59493,3.37862 -13.35501,2.84673 -6.682206,-0.45801 -8.169237,-0.2786 -9.183098,1.10794 -1.965394,2.68784 -0.534477,6.84997 4.005924,11.65209 2.340109,2.475 5.547074,6.75 7.126584,9.5 2.73938,4.76939 2.88839,5.67242 3.23072,19.5794 l 0.35888,14.57939 -3.28882,5.92061 c -3.62542,6.52654 -9.921882,14.73365 -13.871652,18.08096 -2.968799,2.51598 -3.166857,2.26639 4.117275,5.18847 4.032205,1.61755 6.662497,2.08628 9.120027,1.62525 3.06827,-0.57561 3.70106,-0.30031 5.67207,2.46772 1.22018,1.71358 2.64836,4.67239 3.17373,6.57514 0.52537,1.90274 1.83703,3.93145 2.91479,4.50826 1.65024,0.88318 2.72523,0.33254 6.80995,-3.48824 C 126.77659,369.87067 128.40716,369 131.3537,369 l 3.6463,0 0,8.42742 c 0,9.55542 -0.62316,8.67749 11.40844,16.07258 4.84083,2.97536 6.5186,4.57636 6.54972,6.25 0.0486,2.61263 3.04184,3.15465 3.04184,0.55082 0,-0.93455 -1.1051,-5.77205 -2.45577,-10.75 -1.49422,-5.507 -3.88004,-20.99301 -6.0933,-39.55082 -2.00064,-16.775 -4.72054,-37.14574 -6.04423,-45.26832 C 140.08302,296.60911 139,288.42927 139,286.55426 c 0,-4.02901 2.69681,-6.54598 9.80775,-9.15369 2.58074,-0.9464 5.36725,-2.35201 6.19225,-3.12357 1.64326,-1.53681 2.37057,-0.74076 -8.93279,-9.777 -3.27413,-2.61744 -5.2273,-5.03692 -5.65086,-7 -0.35601,-1.65 -1.08323,-3.54177 -1.61603,-4.20393 -0.53281,-0.66216 -2.48072,-4.3589 -4.32869,-8.21496 -1.84797,-3.85607 -4.27522,-8.2643 -5.3939,-9.79607 -1.87071,-2.5615 -3.51235,-8.53404 -6.45552,-23.48616 -0.61722,-3.13561 -1.58528,-6.16369 -2.15126,-6.72905 -0.56598,-0.56536 -6.15708,-3.62486 -12.42467,-6.79888 -13.764313,-6.9705 -16.267676,-9.70294 -19.623584,-21.41925 -1.992016,-6.95463 -2.236615,-9.1881 -1.462216,-13.3517 0.51148,-2.75 1.229331,-9.18706 1.595223,-14.30457 0.532436,-7.44686 1.102437,-9.84274 2.85491,-12 1.204308,-1.48249 3.620967,-4.97139 5.370354,-7.75311 1.749387,-2.78173 4.250483,-6.06268 5.557983,-7.29102 l 2.37728,-2.23334 1.81118,2.79102 c 2.59984,4.00635 8.08613,10.53268 14.81958,17.62896 3.84994,4.0574 5.34913,6.26333 4.38934,6.45855 -0.80172,0.16307 -1.96228,1.40399 -2.57902,2.7576 -1.73832,3.81519 -3.22786,14.82617 -2.51252,18.57307 0.79845,4.18228 4.07483,10.87284 5.32445,10.87284 0.87528,0 3.28828,-4.71515 9.41019,-18.38805 2.13391,-4.76595 2.40152,-6.17096 1.40422,-7.37263 -0.67765,-0.81653 2.5813,1.04885 7.24213,4.14527 9.67889,6.43019 29.30252,16.3467 34.18663,17.27571 1.80817,0.34394 4.63759,1.32921 6.28759,2.1895 4.84159,2.52433 45.57199,2.07272 59.54766,-0.66025 5.74879,-1.12419 12.98786,-2.49207 16.08683,-3.03974 9.13988,-1.61525 19.88635,-6.6436 26.4374,-12.37025 3.26046,-2.85015 4.91561,-4.05002 3.67811,-2.66638 -2.802,3.13291 -2.7956,3.63233 0.15131,11.80183 1.32071,3.66133 2.69438,9.34078 3.05258,12.62098 1.06716,9.77231 1.33116,10.46401 3.99373,10.46401 3.17472,0 5.34454,-2.30434 8.34867,-8.86621 2.13432,-4.66197 2.39291,-6.33703 1.89506,-12.27543 -0.50215,-5.98955 -1.1187,-7.64969 -4.77883,-12.86757 C 300.60125,155.69586 298.24835,153 297.68385,153 c -0.5645,0 -1.94686,0.7875 -3.07191,1.75 -1.12504,0.9625 -0.0355,-0.62343 2.42126,-3.5243 4.41018,-5.20744 7.50968,-9.36035 9.47447,-12.6945 2.55817,-4.34108 16.90382,14.06366 19.7986,25.40059 1.15488,4.52293 1.16995,6.36347 0.0901,11 -0.7133,3.06251 -2.01547,8.98282 -2.89371,13.15622 -1.39444,6.62641 -2.13232,8.11359 -5.82258,11.7353 -3.92173,3.84889 -11.57044,7.67745 -19.12705,9.57404 -5.08523,1.27631 -8.42333,4.38591 -9.55714,8.90294 -0.57979,2.30984 -2.84772,7.91589 -5.03984,12.45789 -4.96138,10.27979 -7.39266,19.01075 -5.82115,20.9043 0.61052,0.73564 2.33742,1.33752 3.83756,1.33752 3.22275,0 9.86723,4.56168 12.94946,8.89028 2.68689,3.77339 8.07813,15.51123 8.07813,17.58776 0,3.32899 -1.71233,1.00264 -6.26504,-8.5116 -5.33641,-11.15202 -8.96325,-14.52002 -17.31644,-16.08056 -4.191,-0.78297 -4.98334,-0.59335 -8.96346,2.14504 -2.40133,1.65216 -4.94859,3.8034 -5.66056,4.78053 -1.19881,1.64527 -3.84376,3.58026 -15.0445,11.00627 -2.3375,1.54974 -6.35337,3.59892 -8.92415,4.55373 -4.22466,1.56908 -7.1847,3.48383 -14.82585,9.59035 -1.81248,1.44846 -5.25009,2.31079 -12.5,3.13563 -5.5,0.62576 -11.51746,1.75982 -13.37212,2.52015 -5.31814,2.1802 -7.61941,1.69171 -14.83817,-3.14966 -3.71667,-2.49264 -9.5625,-5.39842 -12.99073,-6.45729 -3.42823,-1.05888 -7.59796,-2.631 -9.26607,-3.49361 -2.87463,-1.48653 -3.03291,-1.467 -3.03291,0.37428 0,1.06846 2.24519,6.59252 4.98932,12.27568 6.33076,13.1112 15.47584,46.2442 17.05858,61.80394 0.58609,5.76176 1.23354,10.64386 1.43879,10.8491 0.20524,0.20525 0.68845,-2.82647 1.0738,-6.73714 0.60344,-6.12394 0.99465,-7.17896 2.82007,-7.60519 1.16569,-0.27218 11.11944,-2.51497 22.11944,-4.98399 11,-2.46901 21.00976,-4.72303 22.2439,-5.00893 1.33675,-0.30967 2.81007,-1.87485 3.64437,-3.8716 3.06986,-7.34722 9.72012,-8.73137 14.43991,-3.00545 2.64157,3.20468 3.57136,3.64336 8.3228,3.92669 4.91626,0.29316 33.52896,8.70285 34.97822,10.2806 0.34606,0.37675 1.20427,2.48499 1.90714,4.68499 2.17698,6.81397 6.82735,16.5 7.92184,16.5 1.58003,0 1.33535,-1.72215 -2.5177,-17.72046 -3.76996,-15.65327 -6.79215,-43.97993 -5.71338,-53.55077 0.46995,-4.16936 0.94304,-4.95294 3.81246,-6.31456 1.80176,-0.855 3.80087,-2.82188 4.44248,-4.37085 0.90759,-2.19111 2.38479,-3.1995 6.65419,-4.54239 6.65973,-2.09474 16.85694,-1.7183 20.64242,0.76204 2.78432,1.82435 21.34322,26.16301 24.24464,31.79508 3.19121,6.19459 6.74352,10.04342 11.48925,12.44826 4.81757,2.44125 9.89474,7.47535 12.36202,12.25715 1.45972,2.82906 4.60463,14.44256 5.07747,18.75004 0.15066,1.3725 3.29626,5.78086 7.15837,10.03202 3.78928,4.17099 7.43046,8.55358 8.09152,9.73908 1.70288,3.05385 3.61979,3.56299 13.79808,3.66488 10.08439,0.10095 20.06075,1.34302 29,3.61055 5.41052,1.37243 6.79946,2.32846 14.13724,9.73094 8.02422,8.09497 8.16147,8.31858 9.88144,16.0986 1.70742,7.72322 1.70166,7.97628 -0.27321,12 -2.31323,4.71311 -4.7808,7.33622 -11.54958,12.27755 -6.42282,4.68877 -18.49952,6.80097 -33.69589,5.89338 -14.18658,-0.84728 -20.27039,-2.17926 -28.22666,-6.17986 -6.67677,-3.35723 -6.777,-3.37369 -13.51186,-2.21879 -5.59135,0.95881 -7.57489,0.90611 -11.27334,-0.29952 -3.80177,-1.23931 -4.83283,-2.17674 -6.74208,-6.12982 C 357.83735,421.74537 355,421.10468 355,425.54797 c 0,6.77093 -6.0955,3.06033 -22.74475,-13.84572 -1.51539,-1.53876 -5.59528,-5.59872 -9.06643,-9.02214 -7.07602,-6.97872 -7.39556,-9.79253 -0.41419,-3.64728 2.47882,2.18194 4.81073,3.96717 5.18202,3.96717 0.37129,0 1.68672,1.8 2.92319,4 1.23647,2.2 2.66798,4 3.18113,4 0.51315,0 4.28981,3.18864 8.39257,7.08587 4.10277,3.89722 7.93982,6.78905 8.52678,6.42629 0.58697,-0.36276 3.75721,-4.66016 7.04497,-9.54978 8.52952,-12.68521 15.5883,-20.19497 26.99675,-28.72154 5.48788,-4.1016 9.97796,-7.84987 9.97796,-8.32951 0,-0.47964 -3.15,-4.32765 -7,-8.55113 -4.85217,-5.32287 -7.00526,-8.47394 -7.01714,-10.26963 -0.0329,-4.97742 -3.84877,-17.28958 -6.57989,-21.23059 -2.98016,-4.30037 -6.13575,-6.80737 -11.01119,-8.74798 -3.3246,-1.32331 -6.35794,-4.84177 -10.42647,-12.09392 -1.39407,-2.48494 -7.0948,-10.62333 -12.66827,-18.08531 -9.06166,-12.13208 -10.57835,-13.70048 -14.33815,-14.82694 -4.7552,-1.42469 -13.25239,-0.66204 -14.91265,1.33846 -0.77583,0.93482 -0.23503,2.29882 2.04708,5.16308 4.86079,6.10076 5.81078,8.57903 8.49601,22.16386 1.38381,7.00082 2.95735,13.87075 3.49674,15.26651 0.5394,1.39575 1.17537,5.21072 1.41328,8.47771 0.2379,3.26699 0.98172,8.08273 1.65293,10.70165 1.1322,4.41761 0.99464,5.43081 -1.90375,14.02229 -4.99751,14.81369 -5.87868,16.92935 -9.66355,23.20178 -1.97174,3.26765 -3.58498,6.71068 -3.58498,7.65119 0,0.94051 1.8,7.4796 4,14.53133 2.2,7.05172 4.00277,14.18368 4.00616,15.84881 0.003,1.66512 0.68381,4.32688 1.51204,5.91502 2.08119,3.99065 4.60507,12.97266 5.5026,19.58268 1.11357,8.20104 4.78391,27.19624 6.5259,33.77366 2.35633,8.89704 2.14075,26.35018 -0.4153,33.62262 -2.7684,7.87659 -8.71818,15.48642 -17.67,22.6001 -9.12147,7.24849 -25.97907,16.91861 -30.88016,17.71395 -1.99639,0.32397 -3.85683,0.95636 -4.13429,1.40531 -0.70475,1.1403 10.78102,15.16234 18.36296,22.41785 8.98218,8.59546 11.09359,14.11646 10.68638,27.94319 -0.41429,14.06725 -1.54353,16.89696 -7.82055,19.59727 -8.40559,3.61599 -17.27822,3.65571 -31.17574,0.13958 -12.554,-3.17622 -19.52117,-6.09019 -28.16947,-11.78168 C 240.48733,613.53092 237.67287,612 237.07619,612 c -1.10107,0 -13.14409,-11.7082 -22.96826,-22.32969 l -5.39207,-5.82969 0.60785,-7.88244 c 0.63723,-8.26353 -0.11551,-10.19715 -3.03424,-7.79427 -3.10369,2.55516 -7.28947,9.15072 -7.28947,11.48608 0,1.29245 1.39731,6.51243 3.10514,11.59996 3.08079,9.17753 3.59034,11.51469 6.01436,27.58601 1.49623,9.92004 0.85728,13.82443 -4.7698,29.14634 -3.46608,9.43775 -4.47651,11.11435 -10.13983,16.82493 -5.15692,5.19996 -7.49894,6.75679 -13,8.64159 -9.96957,3.41581 -16.60414,3.8522 -23.12333,1.52094 z m 280.75163,-236.0087 c 7.51873,-0.94277 8.77279,-1.42874 13.54783,-5.25 2.89417,-2.31608 6.49929,-5.11106 8.01139,-6.21106 1.95777,-1.42422 2.89989,-3.15157 3.27245,-6 0.46989,-3.59259 0.0805,-4.54539 -3.82333,-9.35465 -5.68208,-6.99999 -18.20486,-16.38579 -25.52936,-19.13421 -4.47977,-1.68097 -7.85206,-2.16227 -14.66827,-2.09349 -4.86812,0.0491 -9.16544,0.28357 -9.54959,0.52099 -0.38416,0.23742 -5.17615,0.0729 -10.64888,-0.36554 -8.00222,-0.64113 -10.53778,-0.50612 -12.95041,0.68956 -11.58903,5.74342 -12.64376,7.34486 -13.41574,20.36971 -0.32135,5.42199 -0.23778,11.19537 0.18573,12.82974 0.7908,3.05182 2.07185,3.65942 11.73001,5.56359 1.925,0.37953 4.85,1.49922 6.5,2.48821 2.73696,1.64051 10.98614,3.41284 27,5.80096 8.64145,1.28868 11.0865,1.30625 20.33817,0.14619 z M 266.28984,425.86549 c 10.80623,-5.47865 30.00586,-17.38715 31.3568,-19.44895 C 298.95389,404.42143 304,377.70868 304,372.78355 c 0,-3.43519 -3.05222,-1.71008 -12.73618,7.19846 -12.18733,11.21147 -16.41845,12.94814 -33.48427,13.74371 l -11.72045,0.54638 0.60889,5.82551 c 0.59267,5.67035 0.51464,5.91976 -2.92955,9.36395 C 240.691,412.509 239.54782,413 235.5,413 c -4.01176,0 -5.19787,-0.49787 -8.1,-3.4 -4.41459,-4.41459 -4.71504,-9.88371 -0.79868,-14.53804 4.43519,-5.27093 4.96081,-5.0254 -27.10132,-12.65964 -6.05,-1.44055 -12.18045,-3.22744 -13.62322,-3.97087 -1.44276,-0.74343 -2.90526,-1.06963 -3.25,-0.7249 -0.34473,0.34473 -0.62678,9.10178 -0.62678,19.46012 0,22.21152 -0.23431,21.70174 11.1209,24.19601 4.0585,0.89149 12.3291,2.71144 18.3791,4.04434 9.47426,2.08732 13.74493,2.43522 30.78984,2.50822 18.31855,0.0785 20.10284,-0.0739 24,-2.04975 z m -22.23316,-47.43378 c 1.55778,-1.87702 6.36315,-1.8357 7.94332,0.0683 1.53913,1.85454 10.31105,2.04067 11.78174,0.25 0.56464,-0.6875 1.18224,-2.3484 1.37244,-3.69089 0.24839,-1.75318 1.20659,-2.66269 3.40092,-3.22809 7.49733,-1.93181 10.50417,-11.2263 5.31162,-16.41885 -2.58909,-2.58909 -9.87711,-4.12835 -14.29581,-3.01932 -2.19909,0.55193 -2.57091,1.1969 -2.57091,4.45954 0,5.45839 -1.15165,5.86188 -2.94724,1.03259 -1.92959,-5.18967 -4.00854,-6.64122 -7.65751,-5.34658 -2.08418,0.73946 -3.13444,2.21143 -4.54634,6.37184 -1.00983,2.97563 -2.04046,5.61464 -2.29029,5.86447 C 239.0215,365.31184 230,361.06965 230,360.27995 c 0,-0.2979 1.58238,-0.28485 3.5164,0.029 2.98099,0.48375 3.76578,0.19002 5.15431,-1.92914 1.49262,-2.27803 1.49779,-2.63988 0.0583,-4.07941 -0.86881,-0.8688 -3.77119,-1.79022 -6.44974,-2.04759 -4.20722,-0.40426 -5.30629,-0.10093 -8.07467,2.22851 -4.48647,3.77512 -4.54028,9.21697 -0.12784,12.92979 1.69219,1.42389 3.69064,2.58889 4.44098,2.58889 0.75034,0 1.68578,0.52023 2.07875,1.15607 0.51394,0.83158 -0.31614,0.98883 -2.95738,0.56021 -3.17687,-0.51553 -3.89879,-0.24954 -5.35511,1.97307 -1.61684,2.46762 -1.59339,2.64168 0.59467,4.41347 2.95619,2.39377 19.25428,2.64687 21.17804,0.32889 z m 21.09782,-15.86936 c 0.19002,-0.9174 0.7955,-1.64422 1.3455,-1.61517 1.48429,0.0784 1.2116,2.31562 -0.3455,2.83465 -0.84112,0.28038 -1.21599,-0.17677 -1,-1.21948 z M 95.235441,347.63392 c 9.907219,-14.72627 9.765209,-14.42908 9.749249,-20.40334 -0.0223,-8.32847 -1.64232,-9.89834 -2.15667,-2.08985 -0.49067,7.44921 -4.261376,16.44647 -8.790935,20.97603 C 90.955231,349.19861 90.198397,351 91.985441,351 c 0.541992,0 2.004492,-1.51474 3.25,-3.36608 z M 105,312 c 0,-1.58508 -0.45,-3.16008 -1,-3.5 -0.60483,-0.37381 -1,1.00929 -1,3.5 0,2.49071 0.39517,3.87381 1,3.5 0.55,-0.33992 1,-1.91492 1,-3.5 z M 238.45455,300.54545 C 236.90731,298.99822 236,296.94837 236,295 c 0,-3.83947 3.9005,-8 7.5,-8 3.5995,0 7.5,4.16053 7.5,8 0,3.83947 -3.9005,8 -7.5,8 -1.425,0 -3.69545,-1.10455 -5.04545,-2.45455 z M 129.92431,131.3591 c -1.33337,-1.4525 -4.2983,-3.84721 -6.58873,-5.32157 C 112.44313,119.026 107.91179,107.22274 113.20693,99.65437 116.64358,94.742334 127.17712,84 128.55702,84 c 0.81251,0 1.46543,2.499415 1.89392,7.25 1.06269,11.78214 1.37912,12.75 4.16835,12.75 1.35321,0 4.26178,0.919 6.46349,2.04223 9.39946,4.79525 39.59543,8.68554 58.41722,7.52617 6.05,-0.37266 19.84984,-1.07197 30.6663,-1.55402 14.68513,-0.65446 20.44752,-1.28044 22.75063,-2.47142 1.69638,-0.87723 5.42312,-2.03851 8.28165,-2.58062 5.68922,-1.07894 9.08646,-3.65342 11.48169,-8.700995 1.47867,-3.11606 1.44947,-4.568954 -0.17092,-8.503814 -0.67401,-1.636752 -0.48372,-1.646601 3.13655,-0.162342 C 285.02635,93.44104 295,108.47717 295,118.77314 c 0,9.79432 -1.60244,10.40844 -7.75,2.97013 -3.19997,-3.87185 -4.25875,-6.01954 -4.28544,-8.69281 C 282.94508,111.09771 282.28602,108.375 281.5,107 c -1.64597,-2.87932 -1.8063,-2.02366 -0.59649,3.18333 0.93825,4.03821 -1.11492,8.79217 -4.6,10.65093 -4.35488,2.32267 -21.86172,6.33049 -33.80351,7.73859 -7.15,0.84309 -17.275,2.46631 -22.5,3.60717 -8.14776,1.77903 -11.49278,1.98547 -23.5,1.45027 -7.7,-0.34321 -17.14851,-1.30015 -20.99668,-2.12654 -11.25396,-2.41676 -30.79036,-9.30466 -37.00438,-13.04655 -3.15769,-1.90146 -5.95588,-3.4572 -6.2182,-3.4572 -0.64762,0 0.52682,16.87961 1.2566,18.06041 1.24005,2.00645 -1.3129,0.80431 -3.61303,-1.70131 z M 205,34.550292 c -2.475,-0.748701 -6.525,-2.02913 -9,-2.845398 l -4.5,-1.484123 3,-0.850936 c 7.76261,-2.201829 22,0.473847 22,4.134526 0,2.547214 -5.02605,3.004336 -11.5,1.045931 z"
       id="path2993"
       inkscape:connector-curvature="0" />
    <path
       style="fill:#4b4b4b"
       d="m 180,577 c -2.475,-1.03854 -6.075,-1.91779 -8,-1.9539 -1.925,-0.0361 -5.82292,-1.1472 -8.66204,-2.46911 -2.83913,-1.32191 -9.13913,-3.39568 -14,-4.60837 -10.22015,-2.54973 -14.84541,-4.67623 -21.93033,-10.08268 C 124.51698,555.68012 121.19436,554 119.72273,554 c -4.14793,0 -7.75796,-1.78715 -13.47347,-6.67006 -6.06642,-5.18271 -11.232184,-13.38663 -11.226975,-17.82994 0.0019,-1.65 0.897712,-5.85259 1.990616,-9.33909 C 98.193908,516.39335 99,511.01341 99,506.89882 c 0,-6.57524 2.62257,-18.61158 8.09825,-37.16702 1.09851,-3.72252 1.76745,-7.14009 1.48654,-7.5946 -0.79775,-1.2908 3.30193,-11.46056 5.31137,-13.17547 1.92115,-1.63956 5.16192,-10.28397 5.30136,-14.14079 0.10398,-2.87606 10.82215,-42.01385 11.81316,-43.13621 0.39593,-0.4484 3.55026,1.0141 7.00963,3.25 6.06728,3.92147 8.97969,4.97218 8.97969,3.23958 0,-1.45128 -4.38082,-4.93353 -8.16951,-6.4938 -4.93129,-2.03082 -6.28664,-4.85795 -6.31046,-13.16297 -0.026,-9.0726 -1.74993,-9.68584 -8.51014,-3.02729 -6.56569,6.46697 -8.48959,6.05744 -12.87321,-2.74025 l -3.36332,-6.75 -4.43634,0 c -2.43999,0 -5.876493,-0.76656 -7.63668,-1.70347 -2.227551,-1.18567 -5.247604,-1.6532 -9.935554,-1.53811 -5.802845,0.14246 -6.882996,-0.11078 -7.802763,-1.82938 -0.969863,-1.81221 -0.391362,-2.30288 6.322023,-5.36227 7.966429,-3.63042 12.535965,-8.03359 17.711594,-17.06677 2.66955,-4.65923 2.87904,-5.81784 3.0738,-17 0.28781,-16.52507 -0.44406,-18.7333 -10.269472,-30.98553 C 90.835746,285.57111 90,283.82126 90,280.46447 90,278.22901 90.54,275.86 91.2,275.2 c 0.760645,-0.76065 4.592283,-1.2 10.46527,-1.2 8.57686,0 9.61675,-0.2229 13.99578,-3 7.71753,-4.89431 12.53596,-3.49146 13.96434,4.06562 0.35702,1.88891 1.33211,4.22188 2.16686,5.18438 1.35782,1.56563 1.35626,1.75 -0.0148,1.75 -2.21651,0 -4.02339,-2.57694 -4.69337,-6.69358 -0.94724,-5.82035 -3.10664,-6.34737 -10.35896,-2.52819 -5.57631,2.93657 -7.07217,3.27529 -14.35266,3.25 -9.175367,-0.0319 -10.898266,0.96015 -9.771174,5.62612 0.378061,1.56511 2.609578,4.9234 4.958925,7.46286 2.349347,2.53947 5.510469,7.03947 7.024719,10 2.5077,4.90284 2.79374,6.59701 3.2081,19.00064 l 0.45493,13.61786 -3.7138,7.06737 c -2.04259,3.88705 -6.373377,9.90603 -9.62397,13.37549 C 91.659576,355.64804 89,358.77232 89,359.12142 c 0,1.37489 11.71109,4.89034 15.46221,4.64146 3.9474,-0.2619 3.97436,-0.2386 7.21692,6.23712 4.60552,9.19768 5.30381,9.42659 11.1601,3.65836 4.18532,-4.12239 5.36175,-4.75999 8.2701,-4.48221 L 134.5,369.5 l 0.0193,7 c 0.0245,8.86977 0.85409,11.13629 4.80157,13.1176 1.74852,0.87761 5.54703,3.20119 8.44114,5.16352 3.9951,2.70884 5.12213,4.00856 4.68105,5.39829 -0.6983,2.20015 2.1352,3.64233 3.82877,1.94876 0.84987,-0.84987 0.46881,-3.22183 -1.50734,-9.38278 C 153.30988,388.21042 151.61539,380 150.99897,374.5 c -2.41663,-21.56218 -7.1201,-56.76632 -9.5927,-71.79868 -1.42926,-8.68928 -2.32866,-16.87442 -1.99867,-18.18921 0.42775,-1.70426 2.39313,-3.24878 6.84619,-5.38019 9.40361,-4.50091 10.77363,-4.74306 11.48321,-2.02962 0.32817,1.25489 3.02157,7.22252 5.98534,13.26139 4.12904,8.41319 6.76691,16.02381 11.28471,32.55804 5.44775,19.93765 5.96582,22.7549 6.81383,37.05387 0.57662,9.72297 0.56369,16.49137 -0.0348,18.20818 -0.52392,1.50291 -0.80262,10.61479 -0.61933,20.24862 0.30505,16.03408 0.50537,17.68802 2.36775,19.54856 1.47237,1.47092 6.98284,3.12499 19.94389,5.98653 17.46584,3.8561 18.4242,3.95752 38.69693,4.09524 l 20.78756,0.14121 6.76855,-3.71028 c 19.74828,-10.8253 27.55999,-16.01105 28.89938,-19.18468 1.4035,-3.32554 3.91566,-17.5121 5.34443,-30.18086 0.75695,-6.71179 0.49085,-8.78142 -2.97179,-23.1138 -3.87653,-16.04552 -6.67714,-41.65526 -5.85132,-53.50642 0.30175,-4.33041 0.72132,-5.17035 3.16544,-6.33695 1.54967,-0.73968 3.65987,-2.7299 4.68934,-4.42272 2.305,-3.79028 6.65328,-5.70662 14.49308,-6.3873 10.70017,-0.92902 12.47359,0.26427 24.84371,16.71674 5.96404,7.93228 11.89764,16.48784 13.18578,19.01235 2.33201,4.57031 8.52695,10.90998 10.66092,10.90998 1.96997,0 7.80445,5.03511 10.42757,8.99891 2.56328,3.87338 6.33324,16.34225 6.36488,21.05139 0.012,1.78169 2.42821,5.17688 8.01714,11.26534 4.4,4.79327 8,9.06986 8,9.50353 C 399,380.7389 380.49634,395 378.00551,395 c -0.41908,0 -2.39219,2.36702 -4.38469,5.26005 -1.99251,2.89303 -4.52158,5.82139 -5.62017,6.50747 -1.09858,0.68608 -2.96138,3.29815 -4.13955,5.8046 -1.17817,2.50645 -3.8789,6.36481 -6.00162,8.57413 -2.12271,2.20932 -3.85948,4.88023 -3.85948,5.93535 0,1.05512 -0.24735,1.9184 -0.54966,1.9184 -2.7101,0 -10.16587,-6.13134 -21.66811,-17.81903 -1.25523,-1.27546 -4.97,-4.96269 -8.25506,-8.19383 -3.28506,-3.23114 -5.67372,-6.17392 -5.30813,-6.53951 0.94534,-0.94534 10.46361,7.30281 12.81171,11.10212 1.08203,1.75076 3.73135,4.35058 5.88738,5.77737 2.15603,1.4268 5.15131,4.20843 6.65617,6.18141 3.59342,4.71121 6.06899,6.0324 8.11755,4.33225 0.8602,-0.71391 4.18583,-5.19723 7.39029,-9.96294 7.90543,-11.75706 15.65151,-19.90547 26.66786,-28.05299 5.0875,-3.76263 9.25,-7.3279 9.25,-7.92282 0,-0.59491 -3.15,-4.57024 -7,-8.83405 -4.85029,-5.37162 -7,-8.54379 -7,-10.32941 0,-3.36777 -2.85531,-14.51442 -4.57721,-17.86869 C 373.96141,336.07512 369.7987,331.93168 365,329.5 c -5.32348,-2.69761 -8.97452,-6.60541 -12.51261,-13.39256 -1.32101,-2.53409 -6.8152,-10.45744 -12.20931,-17.60744 -11.29561,-14.97256 -13.43311,-16.33579 -23.61864,-15.06319 -6.81745,0.85179 -7.98318,2.51322 -4.47148,6.37289 5.20394,5.7196 6.41276,9.08237 10.25573,28.53002 0.85205,4.31185 1.84919,8.32515 2.21586,8.91844 0.36668,0.5933 1.05729,4.71542 1.5347,9.16028 0.47741,4.44486 1.13099,10.39894 1.4524,13.23129 0.45859,4.04125 -0.007,6.94713 -2.16463,13.5 -1.51196,4.59265 -3.08387,8.80027 -3.49313,9.35027 -0.40926,0.55 -1.07316,2.07127 -1.47534,3.38059 -0.40217,1.30933 -2.25609,4.90933 -4.11982,8 -1.86372,3.09068 -3.38975,6.90651 -3.39116,8.47963 -10e-4,1.57311 1.52852,7.87311 3.39984,14 1.87133,6.12688 3.6856,13.10831 4.03173,15.51429 0.34612,2.40598 1.46175,6.23098 2.47917,8.5 2.07492,4.62742 3.20184,9.68424 9.15043,41.06055 6.50702,34.32182 5.15327,44.60653 -7.69858,58.48772 -9.83627,10.62407 -30.12137,23.40649 -40.95543,25.80759 -5.99518,1.32867 -16.24313,-0.0371 -21.96788,-2.9277 -9.97183,-5.03511 -22.49707,-13.81771 -23.51161,-16.48616 l -0.99823,-2.62555 -2.99456,2.86897 c -1.64701,1.57793 -7.59421,8.21987 -13.216,14.75987 -5.6218,6.54 -13.62499,15.4435 -17.78487,19.78555 L 195.37315,579 189.93658,578.9441 C 186.94646,578.9134 182.475,578.03854 180,577 z m 47.92308,-167.92308 c -4.08975,-4.08975 -4.07471,-9.69569 0.0386,-14.38047 2.2492,-2.5617 2.6822,-3.65259 1.8,-4.53479 C 229.12275,389.52275 228.03073,389 227.33495,389 c -0.69578,0 -3.19328,-0.62423 -5.55,-1.38718 -2.35672,-0.76295 -11.3909,-3.077 -20.07595,-5.14235 -10.69555,-2.54345 -16.05401,-4.27393 -16.60608,-5.36282 -0.86388,-1.70392 -3.4e-4,-24.54992 0.96426,-25.51051 0.31195,-0.31066 10.66195,-2.82524 23,-5.58797 C 233.75657,340.48074 236,339.76995 236,337.47598 236,334.81074 240.65084,331 243.90365,331 c 2.22465,0 3.65482,0.86564 5.5626,3.36686 2.36303,3.09809 3.10548,3.40939 9.30089,3.8997 5.59725,0.44297 24.83633,5.55489 32.84061,8.72592 1.26808,0.50237 2.35984,2.09546 2.74055,3.99901 0.34804,1.7402 2.16524,6.70022 4.03822,11.02227 l 3.40541,7.85827 -10.42374,9.4917 C 278.55331,391.03276 274.40082,392.7309 257,393.41846 l -11.5,0.45439 0.34433,6.04617 c 0.31938,5.60818 0.12574,6.26476 -2.67308,9.06358 C 240.6792,411.47464 239.34357,412 235.5,412 c -3.81039,0 -5.18362,-0.52977 -7.57692,-2.92308 z m 16.1336,-30.64521 c 1.55778,-1.87702 6.36315,-1.8357 7.94332,0.0683 1.53913,1.85454 10.31105,2.04067 11.78174,0.25 0.56464,-0.6875 1.18224,-2.3484 1.37244,-3.69089 0.24839,-1.75318 1.20659,-2.66269 3.40092,-3.22809 7.49733,-1.93181 10.50417,-11.2263 5.31162,-16.41885 -2.58909,-2.58909 -9.87711,-4.12835 -14.29581,-3.01932 -2.19909,0.55193 -2.57091,1.1969 -2.57091,4.45954 0,5.45839 -1.15165,5.86188 -2.94724,1.03259 -1.92959,-5.18967 -4.00854,-6.64122 -7.65751,-5.34658 -2.08418,0.73946 -3.13444,2.21143 -4.54634,6.37184 -1.00983,2.97563 -2.04046,5.61464 -2.29029,5.86447 C 239.0215,365.31184 230,361.06965 230,360.27995 c 0,-0.2979 1.58238,-0.28485 3.5164,0.029 2.98099,0.48375 3.76578,0.19002 5.15431,-1.92914 1.49262,-2.27803 1.49779,-2.63988 0.0583,-4.07941 -0.86881,-0.8688 -3.77119,-1.79022 -6.44974,-2.04759 -4.20722,-0.40426 -5.30629,-0.10093 -8.07467,2.22851 -4.48647,3.77512 -4.54028,9.21697 -0.12784,12.92979 1.69219,1.42389 3.69064,2.58889 4.44098,2.58889 0.75034,0 1.68578,0.52023 2.07875,1.15607 0.51394,0.83158 -0.31614,0.98883 -2.95738,0.56021 -3.17687,-0.51553 -3.89879,-0.24954 -5.35511,1.97307 -1.61684,2.46762 -1.59339,2.64168 0.59467,4.41347 2.95619,2.39377 19.25428,2.64687 21.17804,0.32889 z m 21.09782,-15.86936 c 0.19002,-0.9174 0.7955,-1.64422 1.3455,-1.61517 1.48429,0.0784 1.2116,2.31562 -0.3455,2.83465 -0.84112,0.28038 -1.21599,-0.17677 -1,-1.21948 z M 239,300 c -4.12982,-4.12982 -1.17851,-12 4.5,-12 1.375,0 3.4,0.9 4.5,2 4.12982,4.12982 1.17851,12 -4.5,12 -1.375,0 -3.4,-0.9 -4.5,-2 z m 58.42751,-28.47517 c -5.44639,-10.95368 -9.80803,-15.41388 -16.06839,-16.43148 -5.15112,-0.83729 -5.57757,-2.9028 -0.44672,-2.16369 7.26828,1.04701 12.36041,5.78084 17.62408,16.38396 2.58602,5.20927 4.5031,10.06764 4.26019,10.79637 -0.24291,0.72873 -2.65903,-3.13459 -5.36916,-8.58516 z M 202.90759,266.1674 C 196.22741,263.46986 190.11643,258.97319 183.6742,252.01481 178.11361,246.00871 176.46128,242 179.54626,242 c 0.85045,0 5.01295,3.5263 9.25,7.83623 C 199.12167,260.33921 203.67807,262.5 215.5,262.5 c 7.88422,0 9.66917,-0.34501 14.39759,-2.78286 2.96867,-1.53057 7.13995,-4.16285 9.26952,-5.8495 3.86045,-3.05753 6.83289,-3.26278 6.83289,-0.47183 0,2.11259 -6.51347,7.20074 -13.89826,10.85695 -5.52416,2.735 -7.64171,3.20885 -15.5,3.46845 -7.06867,0.23351 -10.12755,-0.11357 -13.69415,-1.55381 z m 7.5869,-43.9174 c -2.10517,-1.5125 -6.03555,-4.85613 -8.73418,-7.43029 -3.89222,-3.71269 -4.8398,-5.23893 -4.58346,-7.38242 0.28152,-2.35398 1.28734,-3.07157 7.80688,-5.5697 10.29808,-3.94599 16.15876,-3.87083 22.43703,0.28772 2.62,1.73542 5.2724,4.2719 5.8942,5.63662 1.03711,2.27618 0.73415,2.8402 -3.66485,6.82287 C 224.61973,219.1691 216.4565,225 215.1109,225 c -0.43386,0 -2.51125,-1.2375 -4.61641,-2.75 z M 163.36704,203.22776 C 160.59911,200.98565 159,197.78975 159,194.5 c 0,-5.28399 4.4516,-10.45553 9,-10.45553 4.5484,0 9,5.17154 9,10.45553 0,5.28399 -4.4516,10.45553 -9,10.45553 -1.375,0 -3.45983,-0.7775 -4.63296,-1.72777 z m 84.15378,-0.61603 C 241.17512,196.26603 244.62137,182 252.5,182 c 7.87863,0 11.32488,14.26603 4.97918,20.61173 C 256.16563,203.92528 253.925,205 252.5,205 c -1.425,0 -3.66563,-1.07472 -4.97918,-2.38827 z M 129.92431,131.3591 c -1.33337,-1.4525 -4.2983,-3.84721 -6.58873,-5.32157 C 112.44313,119.026 107.91179,107.22274 113.20693,99.65437 116.76143,94.573903 127.19835,84 128.65851,84 c 0.84035,0 1.35325,1.214099 1.37298,3.25 0.11209,11.568781 0.68389,17.86538 1.71612,18.89761 0.91577,0.91577 1.33294,0.80605 1.8266,-0.48039 0.84177,-2.19363 2.65071,-2.10329 7.50857,0.37501 9.39946,4.79525 39.59543,8.68554 58.41722,7.52617 6.05,-0.37266 19.84984,-1.07197 30.6663,-1.55402 14.68513,-0.65446 20.44752,-1.28044 22.75063,-2.47142 1.69638,-0.87723 5.42312,-2.03851 8.28165,-2.58062 5.68922,-1.07894 9.08646,-3.65342 11.48169,-8.700995 1.47867,-3.11606 1.44947,-4.568954 -0.17092,-8.503814 -0.67401,-1.636752 -0.48372,-1.646601 3.13655,-0.162342 C 285.02635,93.44104 295,108.47717 295,118.77314 c 0,9.79432 -1.60244,10.40844 -7.75,2.97013 -3.19997,-3.87185 -4.25875,-6.01954 -4.28544,-8.69281 C 282.94508,111.09771 282.28602,108.375 281.5,107 c -1.64597,-2.87932 -1.8063,-2.02366 -0.59649,3.18333 0.93825,4.03821 -1.11492,8.79217 -4.6,10.65093 -4.35488,2.32267 -21.86172,6.33049 -33.80351,7.73859 -7.15,0.84309 -17.275,2.46631 -22.5,3.60717 -8.14776,1.77903 -11.49278,1.98547 -23.5,1.45027 -7.7,-0.34321 -17.14851,-1.30015 -20.99668,-2.12654 -11.25396,-2.41676 -30.79036,-9.30466 -37.00438,-13.04655 -3.15769,-1.90146 -5.95588,-3.4572 -6.2182,-3.4572 -0.64762,0 0.52682,16.87961 1.2566,18.06041 1.24005,2.00645 -1.3129,0.80431 -3.61303,-1.70131 z M 205,34.550292 c -2.475,-0.748701 -6.525,-2.02913 -9,-2.845398 l -4.5,-1.484123 3,-0.850936 c 7.76261,-2.201829 22,0.473847 22,4.134526 0,2.547214 -5.02605,3.004336 -11.5,1.045931 z"
       id="path2991"
       inkscape:connector-curvature="0" />
    <path
       style="fill:#663434"
       d="m 351.5,426 c 0.33992,-0.55 0.81648,-1 1.05902,-1 0.24254,0 0.44098,0.45 0.44098,1 0,0.55 -0.47656,1 -1.05902,1 -0.58246,0 -0.7809,-0.45 -0.44098,-1 z m 5.5,-6.51402 c 0,-1.02696 4.52013,-7.46156 5.25,-7.4736 1.34688,-0.0222 0.79109,2.12117 -1.31809,5.08325 C 359.10695,419.65855 357,420.93944 357,419.48598 z M 227.92308,409.07692 c -4.23097,-4.23096 -4.10511,-9.84334 0.32692,-14.57878 l 3.25,-3.47249 6.32912,1.63017 c 4.99024,1.28533 6.52392,2.14255 7.25,4.05228 C 248.19004,404.89044 243.73649,412 235.5,412 c -3.81039,0 -5.18362,-0.52977 -7.57692,-2.92308 z M 368,404.11803 c 0,-0.55 0.45,-1.27811 1,-1.61803 0.55,-0.33992 1,-0.16803 1,0.38197 0,0.55 -0.45,1.27811 -1,1.61803 -0.55,0.33992 -1,0.16803 -1,-0.38197 z m 15.6125,-15.22559 C 391.44065,382.63483 396,379.84623 396,381.31596 c 0,1.4005 -3.98231,4.40731 -11.30716,8.53739 -5.29461,2.98534 -5.63656,2.6812 -1.08034,-0.96091 z M 78.638676,360.50079 c -0.737777,-1.92262 9.08087,-7.18124 10.59024,-5.67187 0.647737,0.64773 0.263116,1.37257 -1.121557,2.11362 C 86.948312,357.56285 86,358.68139 86,359.42819 c 0,2.65646 -6.395924,3.58839 -7.361324,1.0726 z M 236,337.09047 c 0,-0.64976 1.10455,-2.28592 2.45455,-3.63592 2.93707,-2.93708 7.53548,-3.22804 9.89046,-0.62581 2.32771,2.57209 2.05726,4.17126 -0.70544,4.17126 -1.29823,0 -4.44823,0.28617 -7,0.63592 C 237.37945,338.08277 236,337.9206 236,337.09047 z M 239,300 c -4.12982,-4.12982 -1.17851,-12 4.5,-12 1.375,0 3.4,0.9 4.5,2 4.12982,4.12982 1.17851,12 -4.5,12 -1.375,0 -3.4,-0.9 -4.5,-2 z M 202.90759,266.1674 C 196.22741,263.46986 190.11643,258.97319 183.6742,252.01481 178.11361,246.00871 176.46128,242 179.54626,242 c 0.85045,0 5.01295,3.5263 9.25,7.83623 C 199.12167,260.33921 203.67807,262.5 215.5,262.5 c 7.88422,0 9.66917,-0.34501 14.39759,-2.78286 2.96867,-1.53057 7.13995,-4.16285 9.26952,-5.8495 3.86045,-3.05753 6.83289,-3.26278 6.83289,-0.47183 0,2.11259 -6.51347,7.20074 -13.89826,10.85695 -5.52416,2.735 -7.64171,3.20885 -15.5,3.46845 -7.06867,0.23351 -10.12755,-0.11357 -13.69415,-1.55381 z m 8.80861,-43.59406 c -0.78466,-0.78466 -2.79115,-2.25645 -4.45886,-3.27065 C 203.75506,217.17283 197,209.41839 197,207.52783 c 0,-0.70562 0.5625,-1.71657 1.25,-2.24656 2.55302,-1.9681 15.98999,-6.28114 19.55721,-6.27753 5.74137,0.006 15.19279,6.41001 15.19279,10.2945 0,3.22861 -14.08359,14.59441 -18.17857,14.67055 -0.92322,0.0172 -2.32057,-0.61079 -3.10523,-1.39545 z M 163.36704,203.22776 C 160.59911,200.98565 159,197.78975 159,194.5 c 0,-5.28399 4.4516,-10.45553 9,-10.45553 4.5484,0 9,5.17154 9,10.45553 0,5.28399 -4.4516,10.45553 -9,10.45553 -1.375,0 -3.45983,-0.7775 -4.63296,-1.72777 z m 84.15378,-0.61603 C 241.17512,196.26603 244.62137,182 252.5,182 c 7.87863,0 11.32488,14.26603 4.97918,20.61173 C 256.16563,203.92528 253.925,205 252.5,205 c -1.425,0 -3.66563,-1.07472 -4.97918,-2.38827 z M 129.92431,131.3591 c -1.33337,-1.4525 -4.2983,-3.84721 -6.58873,-5.32157 C 112.44313,119.026 107.91179,107.22274 113.20693,99.65437 116.76143,94.573903 127.19835,84 128.65851,84 c 0.84035,0 1.35325,1.214099 1.37298,3.25 0.11209,11.568781 0.68389,17.86538 1.71612,18.89761 0.91577,0.91577 1.33294,0.80605 1.8266,-0.48039 0.84177,-2.19363 2.65071,-2.10329 7.50857,0.37501 9.39946,4.79525 39.59543,8.68554 58.41722,7.52617 6.05,-0.37266 19.84984,-1.07197 30.6663,-1.55402 14.68513,-0.65446 20.44752,-1.28044 22.75063,-2.47142 1.69638,-0.87723 5.42312,-2.03851 8.28165,-2.58062 5.68922,-1.07894 9.08646,-3.65342 11.48169,-8.700995 1.47867,-3.11606 1.44947,-4.568954 -0.17092,-8.503814 -0.67401,-1.636752 -0.48372,-1.646601 3.13655,-0.162342 C 285.02635,93.44104 295,108.47717 295,118.77314 c 0,9.79432 -1.60244,10.40844 -7.75,2.97013 -3.19997,-3.87185 -4.25875,-6.01954 -4.28544,-8.69281 C 282.94508,111.09771 282.28602,108.375 281.5,107 c -1.64597,-2.87932 -1.8063,-2.02366 -0.59649,3.18333 0.93825,4.03821 -1.11492,8.79217 -4.6,10.65093 -4.35488,2.32267 -21.86172,6.33049 -33.80351,7.73859 -7.15,0.84309 -17.275,2.46631 -22.5,3.60717 -8.14776,1.77903 -11.49278,1.98547 -23.5,1.45027 -7.7,-0.34321 -17.14851,-1.30015 -20.99668,-2.12654 -11.25396,-2.41676 -30.79036,-9.30466 -37.00438,-13.04655 -3.15769,-1.90146 -5.95588,-3.4572 -6.2182,-3.4572 -0.64762,0 0.52682,16.87961 1.2566,18.06041 1.24005,2.00645 -1.3129,0.80431 -3.61303,-1.70131 z M 205,34.550292 c -2.475,-0.748701 -6.525,-2.02913 -9,-2.845398 l -4.5,-1.484123 3,-0.850936 c 7.76261,-2.201829 22,0.473847 22,4.134526 0,2.547214 -5.02605,3.004336 -11.5,1.045931 z"
       id="path2989"
       inkscape:connector-curvature="0" />
  </g>
</svg>
